<svg id="Layer_1" data-name="Layer 1" xmlns="http://www.w3.org/2000/svg" xmlns:xlink="http://www.w3.org/1999/xlink" viewBox="0 0 133 78"><defs><style>.cls-1{fill:url(#linear-gradient);}.cls-2{fill:url(#linear-gradient-2);}.cls-3{fill:none;}.cls-4{fill:#ed1c24;}.cls-5{fill:url(#linear-gradient-3);}.cls-6{fill:#fff;}.cls-7{fill:url(#linear-gradient-4);}</style><linearGradient id="linear-gradient" x1="90.26" y1="59.66" x2="126.03" y2="59.66" gradientUnits="userSpaceOnUse"><stop offset="0" stop-color="#606060"/><stop offset="1" stop-color="#1e1e1e"/></linearGradient><linearGradient id="linear-gradient-2" x1="9.37" y1="59.93" x2="45.19" y2="59.93" xlink:href="#linear-gradient"/><linearGradient id="linear-gradient-3" x1="60.8" y1="16.08" x2="60.8" y2="65.41" gradientUnits="userSpaceOnUse"><stop offset="0" stop-color="#fff" stop-opacity="0.5"/><stop offset="0.99" stop-color="#adadad"/></linearGradient><linearGradient id="linear-gradient-4" x1="62.12" y1="16.08" x2="62.12" y2="65.41" xlink:href="#linear-gradient-3"/></defs><path class="cls-1" d="M108.05,76.37c8.86,0,16.84-7.64,16.92-16.48C124.89,51.06,117.18,43,108.32,43a20,20,0,0,0-7.19,1.5l2.32,5.87a14.8,14.8,0,0,1,4.7-.64,9.32,9.32,0,0,1,9.69,9.76c0,5.72-4.07,9.67-9.79,9.67s-9.88-4-9.88-9.67a9.93,9.93,0,0,1,4.76-8.35l-3.22-5.94a17.82,17.82,0,0,0-8.39,14.44C91.4,68.42,99.2,76.37,108.05,76.37Z"/><path class="cls-2" d="M42.2,52.68c-1-.5-4.76-2.4-8.41-4.22l-1.32,2.35a10.15,10.15,0,0,1,4.61,8.63,9.52,9.52,0,0,1-9.85,9.85,9.89,9.89,0,1,1,0-19.77,10.83,10.83,0,0,1,3.91.8l1.21-2.52C28.7,46,24.73,44,23.75,43.5c-6.41.43-12,8.94-12.11,9.18C8.27,60.34,13,68.69,13,68.74a18.6,18.6,0,0,0,16.1,7.59C38.05,76.17,48.53,63.82,42.2,52.68Z"/><path class="cls-3" d="M80.45,38.48l1.53,0a5.92,5.92,0,0,1,.86,0,4.12,4.12,0,0,0-1,0l-1.52,0,0,0Z"/><path class="cls-3" d="M41.26,39.49h0v0c-.54-.26-1.07-.54-1.6-.84L39,38.25l0,0,.64.36C40.18,39,40.72,39.23,41.26,39.49Z"/><path class="cls-4" d="M17.82,25.87l-.64-.38A32.62,32.62,0,0,1,14,23.34l-.5-.05c-.37,0-.68.22-.6.52l.82,3.28a4.82,4.82,0,0,1,2-.81Z"/><path class="cls-4" d="M17.05,28.08a.62.62,0,0,0,.41-.08l-.44.08Z"/><path class="cls-5" d="M52.48,42.09a17.92,17.92,0,0,0,8.88-2.53q.59-.35,1.23-.81c2.14,0,13.12-.16,17.74-.27l0,0c-4.53.12-15.63.25-17.79.27a12.42,12.42,0,0,1-1.22.82,17.85,17.85,0,0,1-8.84,2.53,24.83,24.83,0,0,1-11.17-2.6v0A24.94,24.94,0,0,0,52.48,42.09Z"/><path class="cls-6" d="M47.88,59.44c.42,1.94.75,2.71,2.13,2.71l25.39,0a2.41,2.41,0,0,0,2.22-1.59l5.55-13.49A5,5,0,0,0,83,43l-2.69-4.54c-4.62.11-15.6.24-17.74.27q-.65.47-1.23.81a17.92,17.92,0,0,1-8.88,2.53,24.94,24.94,0,0,1-11.2-2.59l-.27.67a4.27,4.27,0,0,0,.25,3.69l.7,1.28L51.49,51a5.49,5.49,0,0,0,2.07.75L61,52.83a5.69,5.69,0,1,1,.33,4.11,2.05,2.05,0,0,1-.56.09l-7.91.14-.56,0A7.36,7.36,0,0,1,49,56.41l-2-1c0,.09.05.18.07.27Z"/><path class="cls-7" d="M47.88,59.44c.42,1.94.75,2.71,2.13,2.71l25.39,0a2.41,2.41,0,0,0,2.22-1.59l5.55-13.49A5,5,0,0,0,83,43l-2.69-4.54c-4.62.11-15.6.24-17.74.27q-.65.47-1.23.81a17.92,17.92,0,0,1-8.88,2.53,24.94,24.94,0,0,1-11.2-2.59l-.27.67a4.27,4.27,0,0,0,.25,3.69l.7,1.28L51.49,51a5.49,5.49,0,0,0,2.07.75L61,52.83a5.69,5.69,0,1,1,.33,4.11,2.05,2.05,0,0,1-.56.09l-7.91.14-.56,0A7.36,7.36,0,0,1,49,56.41l-2-1c0,.09.05.18.07.27Z"/><path d="M126.22,59.73s0-.1,0-.14,0-.1,0-.15A18.15,18.15,0,0,0,100.58,42.9l-5-9.69c1.26-.7,4.76-2.06,11.25-.69,5.31,1,12.33,2.62,12.4,2.64l.23,0a1,1,0,0,0,.23-2c-.07,0-7.13-1.64-12.46-2.65a26.75,26.75,0,0,0-5.55-.62c1.92-1.82,2.9-4.91.56-11A114.54,114.54,0,0,0,93.4,1,2.39,2.39,0,0,0,90.82,0,2.24,2.24,0,0,0,89,2,7.4,7.4,0,0,0,90,5.4c.38.9.81,1.92,1.22,3.22,2.25,7.11.4,9.31-1.87,11.09a4.44,4.44,0,0,1-.75.5l-5.25-9.9c-1.12-2.07-2.54-2.85-5-4.05l-5-2.21A1,1,0,0,0,72,4.56a1,1,0,0,0,.52,1.34l5,2.19c2.36,1.16,3.25,1.7,4,3.17l4.76,9-.4-.1L81.1,18.66c-9.54-2.8-14.21,1.31-21.28,7.53-1,.91-2.1,1.86-3.26,2.84-6.23,5.31-13.66.73-18.8-4-.27-.24-.45-.4-.51-.44C36.36,24,14,19.44,13.83,19.4h-.17a1.53,1.53,0,0,0-1.55,1c-.21.74.09,1.54,1.87,2.91a32.62,32.62,0,0,0,3.2,2.15l.64.38-2.13.41a4.82,4.82,0,0,0-2,.81,5.3,5.3,0,0,0-1.47,1.51L6.92,37.77a1,1,0,0,0,.37,1.38,1,1,0,0,0,.5.14,1,1,0,0,0,.88-.51L14,29.66A3.07,3.07,0,0,1,16,28.27l1-.19.44-.08,3-.58c4,2.38,11.06,6.51,16.84,9.83l-1.93,3.82L24.41,34.33A4.4,4.4,0,0,0,18.27,36,4.41,4.41,0,0,0,18,39.43,4.35,4.35,0,0,0,20.19,42l1.08.54-.22.09-.77.28-.68.31c-.27.12-.54.24-.8.38l-.53.29a17.5,17.5,0,0,0-2.83,2l-.46.38-.62.61c-.17.17-.34.33-.5.51s-.36.41-.53.62-.33.39-.49.59l-.46.63-.45.67-.39.64c-.14.24-.27.49-.4.74s-.23.43-.33.65-.24.53-.35.8l-.27.66c-.1.29-.19.57-.28.86s-.14.44-.2.67-.15.62-.22.93-.1.43-.14.64-.11.73-.15,1.1c0,.18,0,.35-.06.52-.05.53-.08,1.07-.08,1.61,0,0,0,0,0,0,0,.6,0,1.2.09,1.81h0l0,.26c.06.49.13,1,.23,1.46.05.27.12.53.19.8s.13.55.21.82.23.69.35,1c.06.17.12.33.19.5.15.39.33.78.51,1.16l.14.27c.21.42.44.84.68,1.24l.06.09a17.94,17.94,0,0,0,9.59,7.69l.17.06c.41.14.83.26,1.24.37l.47.11,1,.2.73.1q.44.06.87.09l.36,0,1,0h.09l.91,0,.35,0q.47,0,.93-.09l.73-.1,1-.19.63-.16c.34-.08.68-.18,1-.29l.56-.19c.34-.12.67-.25,1-.39l.54-.25c.31-.15.62-.3.92-.46l.59-.34.79-.49.71-.5.6-.45c.29-.24.57-.48.84-.73l.33-.28.07-.08c.41-.39.81-.8,1.18-1.23,0,0,0,0,.05,0,.37-.44.72-.89,1-1.36.16-.22.29-.45.44-.67s.32-.5.47-.75.3-.56.44-.84.23-.45.34-.68.25-.59.37-.88a.61.61,0,0,1,0-.12c5.76,0,11.15,0,15.9,0h6.51c5,0,8.9,0,11.14-.13a4.17,4.17,0,0,0,3.59-2.67c1.1-2.69,2.23-5.63,3.42-8.73s2.49-6.49,4-10.31a41.78,41.78,0,0,1,5.31-9.81l4.72,9.22a18.17,18.17,0,0,0-8.9,15.6c0,.05,0,.1,0,.15s0,.09,0,.14a18.17,18.17,0,0,0,36.33,0ZM19.89,38.82a2.38,2.38,0,0,1,3.47-2.77L50.44,52.73a7.37,7.37,0,0,0,2.83,1l7.44,1.07,0,0,0,.16-8,.14a5.4,5.4,0,0,1-2.85-.55L21.09,40.22A2.34,2.34,0,0,1,19.89,38.82ZM36.16,26.27l.22.2c8.12,7.53,15.75,9,21.49,4.1,1.17-1,2.25-1.95,3.29-2.86,1.31-1.15,2.52-2.22,3.68-3.17a12.41,12.41,0,0,1,0,7.59,9.89,9.89,0,0,1-3.27,4.76l-.1.08a12,12,0,0,1-1.21.83,15.84,15.84,0,0,1-7.84,2.25,23.32,23.32,0,0,1-11.75-3.18C32,32,18.34,23.83,18.22,23.76a34.69,34.69,0,0,1-3-2C20.24,22.76,34.51,25.75,36.16,26.27Zm54.39-5C93.8,18.74,95.47,15.51,93.09,8c-.44-1.38-.9-2.5-1.28-3.39a6.87,6.87,0,0,1-.76-2.48s0-.17.21-.21a.38.38,0,0,1,.42.15,113.89,113.89,0,0,1,8.72,17.53c3.08,8.07,0,9.32-3.58,10.77-.63.26-1.28.52-1.88.82a6,6,0,0,0-1.18.82l0,0h0c-2.59,2.28-5.06,7.41-6.54,10.9-.7-1.48-1.54-3.35-2.12-4.92a2.51,2.51,0,0,0-2.75-1.66l-.58,0c-2.09.1-12.28.23-17.08.29a11.86,11.86,0,0,0,2.13-3.93,14.2,14.2,0,0,0-.28-9.52c4.16-3.08,8-4.4,14-2.63l4.78,1.47C87.58,22.76,89,22.56,90.55,21.3ZM28.06,75.85c-.32,0-.63,0-.94,0s-.49,0-.73,0c-.52,0-1-.08-1.54-.15l-.72-.14c-.25,0-.5-.09-.74-.15s-.71-.2-1.06-.31L22,75c-.39-.13-.78-.29-1.16-.45l-.16-.07a13,13,0,0,1-1.18-.59l-.06,0a16.26,16.26,0,0,1-5.94-5.65A1,1,0,0,1,13.4,68q-.3-.5-.57-1l-.16-.33c-.15-.31-.29-.63-.43-1-.07-.17-.13-.35-.19-.52s-.2-.56-.29-.85-.14-.54-.21-.82-.11-.41-.15-.62q-.13-.7-.21-1.41a.51.51,0,0,1,0-.13,14.23,14.23,0,0,1-.08-1.61,14,14,0,0,1,.06-1.45c0-.08,0-.15,0-.22,0-.41.09-.82.16-1.22,0-.16.07-.31.11-.47s.12-.62.21-.92.1-.35.15-.52.18-.56.28-.83.14-.35.21-.53.21-.51.32-.76l.27-.54c.12-.23.25-.46.38-.69s.21-.36.33-.54.27-.42.41-.62.25-.36.39-.54.29-.37.44-.55.3-.36.46-.53.3-.32.45-.47.35-.36.54-.52.3-.27.45-.4.4-.35.61-.51l.44-.31.71-.5.33-.19a15.68,15.68,0,0,1,2-1l.06,0c.23-.1.47-.18.71-.27l.66-.23c.21-.07.42-.12.64-.18s.64-.18,1-.25c1,.47,4.44,2.19,8.09,4l-.92,1.88a10.22,10.22,0,0,0-3.84-.75,10.41,10.41,0,1,0,5.63,1.68l.93-1.91c3.65,1.82,7.1,3.55,8.07,4a15.54,15.54,0,0,1,.61,1.52l.09.27c.16.49.3,1,.42,1.48l0,.16a16.51,16.51,0,0,1,.36,3.3v.18c0,.46,0,.92-.07,1.38,0,.24-.06.48-.09.73s-.07.49-.11.74-.14.69-.23,1c0,.09,0,.18-.07.28A16.42,16.42,0,0,1,29.12,75.75C28.77,75.79,28.42,75.83,28.06,75.85Zm-.83-8.06a8.35,8.35,0,0,1,0-16.7,8.17,8.17,0,0,1,2.94.55l-3.88,7.93a1,1,0,0,0,.46,1.35,1.06,1.06,0,0,0,.45.11,1,1,0,0,0,.91-.57L32,52.57a8.35,8.35,0,0,1-4.74,15.22ZM62.75,54.46a3.67,3.67,0,1,1,3.67,3.67A3.67,3.67,0,0,1,62.75,54.46Zm14.89,9.66c-3.1.14-9.48.13-17.56.12-4.57,0-9.74,0-15.26,0a3,3,0,0,0,.07-.32c.07-.27.13-.54.18-.82s.11-.64.15-1,.07-.52.09-.78a2.6,2.6,0,0,0,0-.26c0-.43,0-.85,0-1.27v-.1c0-.23,0-.47,0-.7v-.2a17.83,17.83,0,0,0-.85-4.65L47,55.41l2,1a7.36,7.36,0,0,0,3.29.78l.56,0L60.74,57a2.05,2.05,0,0,0,.56-.09A5.68,5.68,0,1,0,61,52.83l-7.41-1.07A5.49,5.49,0,0,1,51.49,51L42,45.14l-4.88-3L39,38.29l0,0,.66.38c.53.3,1.06.58,1.6.84a24.83,24.83,0,0,0,11.17,2.6,17.85,17.85,0,0,0,8.84-2.53,12.42,12.42,0,0,0,1.22-.82c2.16,0,13.26-.15,17.79-.27l1.52,0a4.12,4.12,0,0,1,1,0,.37.37,0,0,1,.34.3c.7,1.91,1.76,4.21,2.52,5.8a1.72,1.72,0,0,0,.58.67C85,48.42,83.87,51.38,82.85,54c-1.24,3.22-2.31,6-3.4,8.69A2.14,2.14,0,0,1,77.64,64.12ZM99.82,45.87l2.53,4.92a10.43,10.43,0,1,0,1.78-.94l-2.52-4.92a16.42,16.42,0,1,1-1.79.94ZM109,59.27l-3.89-7.61a8.33,8.33,0,1,1-1.79,1l3.88,7.58a1,1,0,0,0,.9.55,1,1,0,0,0,.46-.11A1,1,0,0,0,109,59.27Z"/><path class="cls-6" d="M62.75,54.46a3.67,3.67,0,1,1,3.67,3.67A3.67,3.67,0,0,1,62.75,54.46ZM86.28,45.2a1.72,1.72,0,0,1-.58-.67c-.76-1.59-1.82-3.89-2.52-5.8a.37.37,0,0,0-.34-.3,5.92,5.92,0,0,0-.86,0l-1.53,0h-.12L83,43a5,5,0,0,1,.15,4.07L77.62,60.58a2.41,2.41,0,0,1-2.22,1.59L50,62.15c-1.38,0-1.71-.77-2.13-2.71l-.83-3.76c0-.09,0-.18-.07-.27l-2.46-1.23a17.83,17.83,0,0,1,.85,4.65V59c0,.23,0,.47,0,.7v.1c0,.42,0,.84,0,1.27a2.6,2.6,0,0,1,0,.26c0,.26-.06.52-.09.78s-.09.64-.15,1-.11.55-.18.82a3,3,0,0,1-.07.32c5.52,0,10.69,0,15.26,0,8.08,0,14.46,0,17.56-.12a2.14,2.14,0,0,0,1.81-1.41c1.09-2.68,2.16-5.47,3.4-8.69C83.87,51.38,85,48.42,86.28,45.2Zm-45-1.34.7,1.28-4.88-3L39,38.29l.64.36c.53.3,1.07.58,1.61.84h0l-.27.67A4.27,4.27,0,0,0,41.26,43.86ZM109,59.27l-3.89-7.61a8.33,8.33,0,1,1-1.79,1l3.88,7.58a1,1,0,0,0,.9.55,1,1,0,0,0,.46-.11A1,1,0,0,0,109,59.27Zm-73.37.17a8.35,8.35,0,1,1-8.35-8.35,8.17,8.17,0,0,1,2.94.55l-3.88,7.93a1,1,0,0,0,.46,1.35,1.06,1.06,0,0,0,.45.11,1,1,0,0,0,.91-.57L32,52.57A8.38,8.38,0,0,1,35.58,59.44ZM18.22,23.76a34.69,34.69,0,0,1-3-2c5,1,19.31,4,21,4.54l.22.2c8.12,7.53,15.75,9,21.49,4.1,1.17-1,2.25-1.95,3.29-2.86,1.31-1.15,2.52-2.22,3.68-3.17a12.41,12.41,0,0,1,0,7.59,9.89,9.89,0,0,1-3.27,4.76l-.1.08a12,12,0,0,1-1.21.83,15.84,15.84,0,0,1-7.84,2.25,23.32,23.32,0,0,1-11.75-3.18C32,32,18.34,23.83,18.22,23.76Zm67.07-1.69c2.29.69,3.66.49,5.26-.77C93.8,18.74,95.47,15.51,93.09,8c-.44-1.38-.9-2.5-1.28-3.39a6.87,6.87,0,0,1-.76-2.48s0-.17.21-.21a.38.38,0,0,1,.42.15,113.89,113.89,0,0,1,8.72,17.53c3.08,8.07,0,9.32-3.58,10.77-.63.26-1.28.52-1.88.82a6,6,0,0,0-1.18.82l0,0h0c-2.59,2.28-5.06,7.41-6.54,10.9-.7-1.48-1.54-3.35-2.12-4.92a2.51,2.51,0,0,0-2.75-1.66l-.58,0c-2.09.1-12.28.23-17.08.29a11.86,11.86,0,0,0,2.13-3.93,14.2,14.2,0,0,0-.28-9.52c4.16-3.08,8-4.4,14-2.63ZM21.09,40.22a2.34,2.34,0,0,1-1.2-1.4,2.38,2.38,0,0,1,3.47-2.77L50.44,52.73a7.37,7.37,0,0,0,2.83,1l7.44,1.07,0,0,0,.16-8,.14a5.4,5.4,0,0,1-2.85-.55Z"/></svg>