<svg 
class="bike"
id="Layer_1" 
data-name="Layer 1" 
xmlns="http://www.w3.org/2000/svg" 
xmlns:xlink="http://www.w3.org/1999/xlink" 
viewBox="0 0 133 66">
<defs>
<style>
.cls-1{
    fill:url(#linear-gradient);
}
.cls-2{
    fill:url(#linear-gradient-2);
    }
    
.cls-3{
    fill:url(#linear-gradient-3);
    }
.cls-4{
    fill:url(#linear-gradient-4);
    }
.cls-5{
    fill:none;
    }
.cls-6{
    fill:#fff;
    }
    .cls-7{
        fill:#ed1c24;
        }
.cls-8{
    fill:url(#linear-gradient-5);
    }
</style>
<linearGradient 
id="linear-gradient" 
x1="92.54" 
y1="49.25" 
x2="125.13" 
y2="49.25" 
gradientUnits="userSpaceOnUse">
<stop offset="0" stop-color="#606060"/>
<stop offset="1" stop-color="#1e1e1e"/>
</linearGradient>

<linearGradient 
id="linear-gradient-2" 
x1="10.9" 
y1="44.67" 
x2="47.51" 
y2="44.67" 
xlink:href="#linear-gradient"/>

<linearGradient 
id="linear-gradient-3" 
x1="14.62" 
y1="49.55" 
x2="47.39" 
y2="49.55" 
xlink:href="#linear-gradient"/>

<linearGradient 
id="linear-gradient-4" 
x1="11.57" 
y1="38.37" 
x2="48.62" 
y2="38.37" 
xlink:href="#linear-gradient"/>

<linearGradient 
id="linear-gradient-5" 
x1="65.57" 
y1="5.27" 
x2="65.57" 
y2="55.3" 
gradientUnits="userSpaceOnUse">

<stop 
offset="0" 
stop-color="#fff" 
stop-opacity="0.5"/>

<stop 
offset="0.99" 
stop-color="#adadad"/>

</linearGradient>
</defs>
<path 
class="cls-1" 
d="M124.1,49.23a15.19,15.19,0,0,0-14.87-15.16,24.62,24.62,0,0,0-5.11.36l2.45,6.45a11.54,11.54,0,0,1,2.22-.33,8.37,8.37,0,0,1,8.54,8.7,8.52,8.52,0,1,1-17,0,9,9,0,0,1,5.07-8.1l-2.56-6.31a16.22,16.22,0,0,0-9.24,14.41,15.27,15.27,0,0,0,30.53,0Z"/>

<path class="cls-2" 
d="M46.24,48.15a20.63,20.63,0,0,0-2-7l-3.84,3C40.69,44.53,46.24,48.15,46.24,48.15Z"/><path class="cls-3" d="M46,52.22l-6.64-.94a8.34,8.34,0,0,1-8.21,6.47c-5,0-8.45-3.33-8.45-8.3a9.15,9.15,0,0,1,4.95-8.26L27,40.26a4.2,4.2,0,0,1-1.08-3.36,15.45,15.45,0,0,1,.16-2.83c-5.64,2.09-10.41,9.27-10.41,15.62A15.72,15.72,0,0,0,31,65C38.07,65,44.6,58.91,46,52.22Z"/>

<path 
class="cls-4" 
d="M33.4,34s.09,1.3.13,1.36l5.53,7.49,4.75-2.89C41.65,37.12,37,34.65,33.4,34Z"/>

<path 
class="cls-5" 
d="M50.51,50.87l2.4.41a59.93,59.93,0,0,0-.5-6.38c0-.25-.08-.47-.12-.65-.1-.44-.21-.86-.33-1.29l-.06-.2c-.13-.44-.27-.87-.43-1.29l-.06-.17a21.33,21.33,0,0,0-1.62-3.37l-4.21,2.82a16.54,16.54,0,0,1,2.31,8.32Z"/>

<path 
class="cls-6" 
d="M84,36.37h.08c.61-1.76,1-2.83,1.52-4.14s1-2.6,1.82-4.9a.34.34,0,0,0,0-.13.06.06,0,0,0,0,0,.24.24,0,0,0-.21-.11H85.48l-3.2,9.31Z"/>

<path 
class="cls-6" d="M54.43,44.86a60.48,60.48,0,0,1,.5,6.74c2.69.39,8,1.11,9.07,1.11H78.34A2.71,2.71,0,0,0,80.87,51l4.31-10.9a1.2,1.2,0,0,0,.08-.56,1.39,1.39,0,0,0-.19-.5,1.25,1.25,0,0,0-1-.55h-.19l-3.72,9.08c-1.15,2.58-1.2,3.33-4.62,3.33l-4.82,0-6.92-.19c-.56,0-2.93-.25-4.69-.43A2.36,2.36,0,0,1,57,48.05c-.07-1.14-.16-2.42-.22-2.82A23.07,23.07,0,0,0,46,28.18a.83.83,0,0,1-.29-1.07H40.41a24,24,0,0,1,7.66,5.28l.37.38c.23.25.46.51.68.77l.41.49a21.59,21.59,0,0,1,1.33,1.81.81.81,0,0,1,.1.09s0,.08,0,.11c.2.3.38.61.56.92l.21.37a23,23,0,0,1,1.6,3.49,2.83,2.83,0,0,1,.11.31c.13.37.25.74.36,1.12l.18.65c.07.27.15.52.21.79S54.36,44.4,54.43,44.86Z"/>

<path 
class="cls-7" 
d="M24,25.75a1,1,0,0,0-.69-1.17c-1.21-.08-2.12-.09-3.51-.06-.47,0-.83.56-.79,1.16V27c0,.55.33,1,.75,1h.13A23.47,23.47,0,0,1,24,26.25Z"/>

<path 
d="M125.59,49.23a16.82,16.82,0,0,0-16.8-16.8,16.6,16.6,0,0,0-4.6.65l-1.77-4.89,1.45-.53h0a3.06,3.06,0,0,0,1.8-3.9l-.6-1.62a5.53,5.53,0,0,0,3.44.41l.67-.12h0a2.71,2.71,0,0,0,2.16-3.17L110.17,13A2.71,2.71,0,0,0,107,10.87l-.66.12a5.9,5.9,0,0,0-4.2,3.21l-.8-2.18a3,3,0,0,0-3.9-1.8l-.85.31L94.06,3.65a5.41,5.41,0,0,0-5-3.54L80.94,0a1,1,0,0,0-1,1,1,1,0,0,0,1,1L89,2.11a3.42,3.42,0,0,1,3.15,2.23l2.54,6.89-1.82.66a3.05,3.05,0,0,0-2,2.65,15,15,0,0,0-7-3.88C76.34,8.77,65.7,9.1,60.63,16.32a11.56,11.56,0,0,0-1.15,2.5c-7.23,2-16-1.53-17.75-2.27a5.39,5.39,0,0,0-6.82,2.26,15.6,15.6,0,0,0-1.19,6.31H31.93a1.2,1.2,0,0,0-.33.06l-.5,0A23.72,23.72,0,0,0,7.41,48.86a1,1,0,0,0,2,0A21.71,21.71,0,0,1,31.1,27.17a21.18,21.18,0,0,1,2.12.12c1,.17,2.46.44,3.58.75a21.56,21.56,0,0,1,10,5.9l.06.06c.31.32.61.65.89,1l.14.17c.29.35.57.71.84,1.09l-4.24,2.83a16.77,16.77,0,1,0,3.11,13.45l2.41.28,3.18.54,0,.13.73.1c.87.13,8.51,1.24,10.11,1.24H78.35a4.7,4.7,0,0,0,4.4-3l4.31-10.89a3.56,3.56,0,0,0-.35-3.14,3.1,3.1,0,0,0-.69-.71c.58-1.7,1-2.74,1.48-4s1-2.61,1.82-4.9A2.28,2.28,0,0,0,89.46,27c0-.08,0-.15,0-.22a5.52,5.52,0,0,0,2.73-1.2,5.45,5.45,0,0,0,1.68-2.4l1.6,4.34a3,3,0,0,0,3.91,1.8l1.2-.44,1.75,4.84a16.8,16.8,0,1,0,23.3,15.5ZM108.79,64A14.79,14.79,0,0,1,103,35.63l1.92,5.48a9,9,0,1,0,3.91-.9,8.94,8.94,0,0,0-2,.24L104.86,35a14.52,14.52,0,0,1,3.93-.55,14.8,14.8,0,0,1,0,29.59Zm0-13.79a1,1,0,0,0,.33-.06,1,1,0,0,0,.61-1.28l-2.29-6.54a6.72,6.72,0,0,1,1.35-.13,7,7,0,1,1-3.24.79l2.29,6.55A1,1,0,0,0,108.79,50.23ZM97.85,27.42a1.06,1.06,0,0,1-.54-.58L93,15.1a1,1,0,0,1,.62-1.33l4.53-1.67a1.13,1.13,0,0,1,.36-.06,1,1,0,0,1,1,.68l4.33,11.73a1,1,0,0,1-.62,1.33l-4.53,1.67A1,1,0,0,1,97.85,27.42ZM31.1,64A14.79,14.79,0,0,1,26,35.36a4.79,4.79,0,0,0-.49,1.54,4.66,4.66,0,0,0,1.06,3.57l.62.66A9,9,0,1,0,39.79,51.61l5.78.68A14.81,14.81,0,0,1,31.1,64Zm14.71-16.4-2.25-1.55L43.45,46a10,10,0,0,1-1.55-1A7.94,7.94,0,0,1,40.77,44l3.15-2.1A14.73,14.73,0,0,1,45.81,47.62ZM30.27,49.78a1,1,0,0,0,.83.45,1,1,0,0,0,.56-.17l2.44-1.63.33.34c.15.19.31.37.48.55a7.69,7.69,0,0,0,2.93,1.83,7,7,0,1,1-9.2-8.48L32.7,47l-2.15,1.44A1,1,0,0,0,30.27,49.78Zm9.34-.2a6.15,6.15,0,0,1-3.26-1.65c-.12-.13-.25-.27-.41-.47l-7.89-8.3a2.67,2.67,0,0,1-.57-2,2.59,2.59,0,0,1,1.05-1.8,2.62,2.62,0,0,1,1.61-.54l.46,0A2.73,2.73,0,0,1,32.42,36l6,8.08a9.92,9.92,0,0,0,2.27,2.51,10.8,10.8,0,0,0,1.82,1.15l3.76,2.6Zm0-7.23-5.54-7.49c0-.06-.09-.1-.13-.15A14.76,14.76,0,0,1,42.8,40.2Zm1.35-24c1.76.76,10.49,4.25,18.17,2.59a6.31,6.31,0,0,0,1.23,3.79H35.73a13.16,13.16,0,0,1,1-5.08A3.48,3.48,0,0,1,40.94,18.39Zm12.9,23.87c-.11-.38-.23-.75-.36-1.12a2.83,2.83,0,0,0-.11-.31,23,23,0,0,0-1.6-3.49L51.56,37c-.18-.31-.36-.62-.56-.92,0,0,0-.07,0-.11a.81.81,0,0,0-.1-.09A21.59,21.59,0,0,0,49.53,34l-.41-.49c-.22-.26-.45-.52-.68-.77l-.37-.38a24,24,0,0,0-7.66-5.28h5.33v0L85.52,27l0,.1h1.75a.24.24,0,0,1,.21.11.06.06,0,0,1,0,0,.34.34,0,0,1,0,.13c-.83,2.3-1.36,3.7-1.82,4.9s-.91,2.38-1.52,4.14H80.65a6.1,6.1,0,1,0,0,2.11s0-.07,0-.11h3.24l0,.11H84a1.25,1.25,0,0,1,1,.55,1.39,1.39,0,0,1,.19.5,1.2,1.2,0,0,1-.08.56L80.87,51a2.71,2.71,0,0,1-2.53,1.72H64c-1.11,0-6.38-.72-9.07-1.11a60.48,60.48,0,0,0-.5-6.74c-.07-.46-.13-.85-.2-1.16s-.14-.52-.21-.79Zm24.9-4.89a4.1,4.1,0,1,1-4.1-4.09A4.11,4.11,0,0,1,78.74,37.37Zm9.65-12.5H64.79a3.58,3.58,0,0,1-3-1.59s0-.07,0-.1a2.82,2.82,0,0,1-.22-.42l-.09-.2a4.91,4.91,0,0,1-.15-.51,1.17,1.17,0,0,1-.05-.27c0-.11,0-.21,0-.32s0-.21,0-.31,0-.21,0-.32,0-.22,0-.34a.51.51,0,0,0,0-.13c0-.16,0-.32.09-.49l0-.15a8.55,8.55,0,0,1,1-2.3c3-4.25,8.32-5.75,13.63-5.75a31.18,31.18,0,0,1,7.5.94,12.81,12.81,0,0,1,6.18,3.45,7.7,7.7,0,0,1,2.53,5.42,3.47,3.47,0,0,1-1.29,2.57A3.79,3.79,0,0,1,88.39,24.87Zm19.12-12a.7.7,0,0,1,.69.57l1.17,6.23a.7.7,0,0,1-.56.83l-.67.13A3.88,3.88,0,1,1,106.71,13l.66-.12ZM49.79,37.93a21.33,21.33,0,0,1,1.62,3.37l.06.17c.16.42.3.85.43,1.29L52,43c.12.43.23.85.33,1.29,0,.18.08.4.12.65a59.93,59.93,0,0,1,.5,6.38l-2.4-.41-2.62-1.8a16.54,16.54,0,0,0-2.31-8.32Z"/><path class="cls-6" d="M101.78,49.23a7,7,0,1,0,7-7,6.72,6.72,0,0,0-1.35.13l2.29,6.54a1,1,0,0,1-.61,1.28,1,1,0,0,1-.33.06,1,1,0,0,1-1-.67L105.55,43A7,7,0,0,0,101.78,49.23Z"/><path class="cls-6" d="M32.7,47l-4.06-4.28a7,7,0,1,0,9.2,8.48,7.69,7.69,0,0,1-2.93-1.83c-.17-.18-.33-.36-.48-.55l-.33-.34-2.44,1.63a1,1,0,0,1-.56.17,1,1,0,0,1-.55-1.84Z"/><path class="cls-6" d="M103.76,25.24a1.08,1.08,0,0,0,0-.79L99.46,12.72a1,1,0,0,0-1-.68,1.13,1.13,0,0,0-.36.06L93.6,13.77A1,1,0,0,0,93,15.1l4.33,11.74a1.06,1.06,0,0,0,.54.58,1,1,0,0,0,.79,0l4.53-1.67A1.08,1.08,0,0,0,103.76,25.24Z"/><path class="cls-6" d="M46,28.18a23.07,23.07,0,0,1,10.71,17c.06.4.15,1.68.22,2.82a2.36,2.36,0,0,0,2.11,2.2c1.76.18,4.13.42,4.69.43l6.92.19,4.82,0c3.42,0,3.47-.75,4.62-3.33l3.72-9.08H80.63a6.09,6.09,0,1,1,0-2.11h1.63l3.2-9.31-39.74.05A.83.83,0,0,0,46,28.18Z"/><path class="cls-8" d="M46,28.18a23.07,23.07,0,0,1,10.71,17c.06.4.15,1.68.22,2.82a2.36,2.36,0,0,0,2.11,2.2c1.76.18,4.13.42,4.69.43l6.92.19,4.82,0c3.42,0,3.47-.75,4.62-3.33l3.72-9.08H80.63a6.09,6.09,0,1,1,0-2.11h1.63l3.2-9.31-39.74.05A.83.83,0,0,0,46,28.18Z"/><path d="M85.52,27l-39.77.13v0l39.74-.05Z"/><path d="M83.89,38.37H80.65s0,.08,0,.11h3.21Z"/><path class="cls-6" d="M103.61,17.49a3.9,3.9,0,0,0,4.53,3.1l.67-.13a.7.7,0,0,0,.56-.83L108.2,13.4a.7.7,0,0,0-.69-.57h-.14l-.66.12A3.89,3.89,0,0,0,103.61,17.49Z"/><path class="cls-6" d="M89.62,16.06a12.81,12.81,0,0,0-6.18-3.45,31.18,31.18,0,0,0-7.5-.94c-5.31,0-10.65,1.5-13.63,5.75a8.55,8.55,0,0,0-1,2.3l0,.15c0,.17-.06.33-.09.49a.51.51,0,0,1,0,.13c0,.12,0,.23,0,.34s0,.21,0,.32,0,.21,0,.31,0,.21,0,.32a1.17,1.17,0,0,0,.05.27,4.91,4.91,0,0,0,.15.51l.09.2a2.82,2.82,0,0,0,.22.42s0,.07,0,.1a3.58,3.58,0,0,0,3,1.59h23.6a3.79,3.79,0,0,0,2.47-.82,3.47,3.47,0,0,0,1.29-2.57A7.7,7.7,0,0,0,89.62,16.06Z"/><path class="cls-6" d="M74.64,33.28a4.1,4.1,0,1,0,4.1,4.09A4.09,4.09,0,0,0,74.64,33.28Z"/><path class="cls-6" d="M60.34,24.77A6.31,6.31,0,0,1,59.11,21c-7.68,1.66-16.41-1.83-18.17-2.59a3.48,3.48,0,0,0-4.23,1.3,13.16,13.16,0,0,0-1,5.08Z"/><path class="cls-6" d="M46.24,50.36l-3.76-2.6a10.8,10.8,0,0,1-1.82-1.15,9.92,9.92,0,0,1-2.27-2.51l-6-8.08a2.73,2.73,0,0,0-1.82-1.18l-.46,0a2.62,2.62,0,0,0-1.61.54,2.59,2.59,0,0,0-1.05,1.8,2.67,2.67,0,0,0,.57,2l7.89,8.3c.16.2.29.34.41.47a6.15,6.15,0,0,0,3.26,1.65Z"/></svg>