<svg id="Layer_1" data-name="Layer 1" xmlns="http://www.w3.org/2000/svg" xmlns:xlink="http://www.w3.org/1999/xlink" viewBox="0 0 133 62"><defs><style>.cls-1{fill:url(#linear-gradient);}.cls-2{fill:url(#linear-gradient-2);}.cls-3{fill:url(#linear-gradient-3);}.cls-4{fill:none;}.cls-5{fill:red;}.cls-6{fill:#fff;}.cls-7{fill:url(#linear-gradient-4);}.cls-8{fill:url(#linear-gradient-5);}.cls-9{fill:url(#linear-gradient-6);}</style><linearGradient id="linear-gradient" x1="89.06" y1="44.3" x2="123.63" y2="44.3" gradientUnits="userSpaceOnUse"><stop offset="0" stop-color="#606060"/><stop offset="1" stop-color="#1e1e1e"/></linearGradient><linearGradient id="linear-gradient-2" x1="11.78" y1="32.87" x2="49.1" y2="32.87" xlink:href="#linear-gradient"/><linearGradient id="linear-gradient-3" x1="14.09" y1="44.3" x2="48.78" y2="44.3" xlink:href="#linear-gradient"/><linearGradient id="linear-gradient-4" x1="68.47" y1="-1.7" x2="68.47" y2="46.27" gradientUnits="userSpaceOnUse"><stop offset="0" stop-color="#fff" stop-opacity="0.5"/><stop offset="0.99" stop-color="#adadad"/></linearGradient><linearGradient id="linear-gradient-5" x1="57.31" y1="-1.7" x2="57.31" y2="46.27" xlink:href="#linear-gradient-4"/><linearGradient id="linear-gradient-6" x1="86.71" y1="-1.7" x2="86.71" y2="46.27" xlink:href="#linear-gradient-4"/></defs><path class="cls-1" d="M106.4,28.09a18.82,18.82,0,0,0-7,1.34l2.45,4.64a12,12,0,0,1,4.5-.84c6.41,0,10.93,4.63,10.93,11A10.48,10.48,0,0,1,106.4,55.2c-6.41,0-11-4.21-11-10.62a11.86,11.86,0,0,1,5.54-9.91l-2.49-4.43c-4.56,2.75-8.3,8.33-8.3,14A16.7,16.7,0,0,0,106.4,60.51c8.66,0,16.19-7.33,16.19-16S115.06,28.09,106.4,28.09Z"/><path class="cls-2" d="M45.1,35.91a20.4,20.4,0,0,0-6.42-6.09l-1.85,4.86C37,34.75,45.1,35.91,45.1,35.91Z"/><path class="cls-3" d="M42.53,44.3A10.8,10.8,0,0,1,31.4,55.42c-6.41,0-11.06-4.54-11.06-11A10.75,10.75,0,0,1,31.4,33.34a13.89,13.89,0,0,1,4.31.45l1.74-4.31a18.68,18.68,0,0,0-6.05-1.39A16.63,16.63,0,0,0,15.14,44.28,16.66,16.66,0,0,0,31.4,60.51c8.66,0,16.33-7.58,16.33-16.24,0-.33-.2-1-.22-1.31l-5-.17C42.52,43.19,42.53,43.88,42.53,44.3Z"/><path class="cls-4" d="M47.15,36.18l3,.55L44.44,25.36a21.08,21.08,0,0,1-2.83-1l-2,4.28A17.9,17.9,0,0,1,47.15,36.18Z"/><path class="cls-5" d="M19.54,17.92c-.74-.54-1.55-1.17-2.3-1.77s-1.34-1-1.84-1.41a1.82,1.82,0,0,1-.48-.56l-.25.25L17,17a1.79,1.79,0,0,1,.29,2.12.67.67,0,0,0,.31.93l1.06.56,1.65-2.12A8.42,8.42,0,0,1,19.54,17.92Z"/><path d="M106.4,26.55a17.53,17.53,0,0,0-7.21,1.55L93.91,17.87l3.7,2.59a5,5,0,0,0,2.74,1.07,2.51,2.51,0,0,0,.93-.17A3.05,3.05,0,0,0,103,18.72c1.26-5.68-2.12-9.61-3.57-11.29l-.08-.1A3.77,3.77,0,0,0,97.45,6.1c-2.29-.57-4,1.09-5.94,3.32a14.54,14.54,0,0,0-1.18,1.5L86.12,2.76a5.07,5.07,0,0,0-4-2.75h-.07L76.79.13a1,1,0,0,0-1,1,1,1,0,0,0,1,1L82,2a3.08,3.08,0,0,1,2.33,1.66l3.55,6.88a13.65,13.65,0,0,0-7.33-2.35A27.3,27.3,0,0,0,63,13.56a1.79,1.79,0,0,0-.44.47,2.12,2.12,0,0,0-.75.14,20.28,20.28,0,0,1-14.77-.27,62.44,62.44,0,0,0-8.45-1.36c-6.39-.74-17.26-1.22-17.51-1.2l-4.78.27h-.13A1.83,1.83,0,0,0,14.73,13a1.62,1.62,0,0,0,.19,1.18,1.82,1.82,0,0,0,.48.56c.5.36,1.15.87,1.84,1.41s1.56,1.23,2.3,1.77a8.42,8.42,0,0,0,.8.52l-1.65,2.12L9.09,32.87a1,1,0,0,0,.8,1.63,1,1,0,0,0,.79-.39l11.6-14.87a9.18,9.18,0,0,0,1.16.24,70.8,70.8,0,0,1,16.32,4l-1.95,4.27a17.53,17.53,0,0,0-6.41-1.22A17.73,17.73,0,1,0,49.12,44.27c0-.3,0-.59,0-.89l4.55.26,1.56,3.11a7.61,7.61,0,0,0,6.89,4H75.5c4.75,0,5.77-1.88,7-4.08l8.75-17.5c.46-.84.88-2.84.09-3.8,0-.06-.11-.1-.16-.15a10.51,10.51,0,0,0,.85-.89,11.7,11.7,0,0,0,1.74-2.43L97.4,29a17.69,17.69,0,1,0,9-2.48ZM93,10.76c1.75-2,2.7-2.74,3.56-2.74a1.5,1.5,0,0,1,.37,0,1.79,1.79,0,0,1,.87.59l.09.1c1.35,1.57,4.16,4.84,3.11,9.61-.09.61-.27,1-.49,1.12-.38.16-1.24-.26-1.73-.64L92.2,14.21a1.53,1.53,0,0,1-.56-1.34C91.71,12.39,92.06,11.86,93,10.76ZM23.7,17.48a6.52,6.52,0,0,1-3-1.18c-.72-.53-1.51-1.15-2.25-1.74l-1.25-1,3.94-.22c.42,0,11,.46,17.22,1.18a62.83,62.83,0,0,1,8.05,1.28A22.23,22.23,0,0,0,62.62,16a.16.16,0,0,1,.14,0A4.35,4.35,0,0,1,64,17.35l.07.18a2.17,2.17,0,0,1-.7,2.94,9.71,9.71,0,0,1-3,1.3l-.11,0c-.06,0-1.44.51-7.67,1.86a15.92,15.92,0,0,1-10.58-1.42l-.4-.19C35.07,19.17,26.91,17.89,23.7,17.48Zm17.91,6.84a21.08,21.08,0,0,0,2.83,1l5.72,11.37-3-.55a17.9,17.9,0,0,0-7.49-7.58Zm-2.79,6.12a15.82,15.82,0,0,1,5.71,5.25l-7.05-1.31-.36-.21ZM30.21,40.61a4.32,4.32,0,0,0,1.2,1.21l-.93,2a1,1,0,0,0,.5,1.33.9.9,0,0,0,.42.1,1,1,0,0,0,.92-.6l1-2.17,7.59.41a10,10,0,0,1,.1,1.34,9.61,9.61,0,1,1-9.75-9.59,4.28,4.28,0,0,0-1.67,2.56A4.36,4.36,0,0,0,30.21,40.61ZM47.1,44.27A15.76,15.76,0,1,1,37,29.61l-1.69,3.72A11.62,11.62,0,1,0,43,44.27c0-.41,0-.82-.06-1.22l4.09.22C47.07,43.61,47.1,43.94,47.1,44.27ZM33.38,40.5a2.35,2.35,0,0,1-1.49-1,2.38,2.38,0,0,1,2.68-3.59l24.07,4.46,8.51.22c0,.14,0,.28.08.42l-8.85.87ZM87.05,27.2A13.36,13.36,0,0,0,89.72,27a3.64,3.64,0,0,1-.3,1.24l-8.75,17.5c-1.11,2.05-1.62,3-5.17,3H62.08A6,6,0,0,1,58,47.18a5.9,5.9,0,0,1-1-1.38l-1-2,2.35.13h.12l9.84-1A4.55,4.55,0,0,0,71.7,44.5a4.62,4.62,0,1,0-4.41-5.94l-8.36-.2-3.71-.69-2.57-.47L47,25.88a16.66,16.66,0,0,0,2.18.16h.71a18.3,18.3,0,0,0,3.07-.39l1.56-.35c3.06-.68,4.72-1.11,5.57-1.35a.41.41,0,0,0,.07.11,1.53,1.53,0,0,0,.42.42,15.92,15.92,0,0,0,4.76,1.69,14.83,14.83,0,0,0,4,.39c1.08,0,2-.11,2.86-.18a34.48,34.48,0,0,1,8.21.2l1.33.18a39.57,39.57,0,0,0,4.61.43h.07l.67,0A.06.06,0,0,0,87.05,27.2Zm-18,12.68a2.6,2.6,0,1,1,2.6,2.6A2.6,2.6,0,0,1,69.1,39.88ZM90.46,23c-2.19,2.53-3.15,2.41-8.51,1.71l-1.33-.17a41.08,41.08,0,0,0-5.19-.38c-1.26,0-2.31.08-3.44.17-.83.06-1.72.13-2.78.17a12.89,12.89,0,0,1-3.44-.34,21.16,21.16,0,0,1-3.3-1l.18-.08c.29-.12.59-.25.87-.39h0l.14-.08a6.82,6.82,0,0,0,.64-.39l.28-.19a.76.76,0,0,1,.09-.09,4.06,4.06,0,0,0,1.41-1.82c0-.15.07-.3.11-.44a1.6,1.6,0,0,0,0-.21,5,5,0,0,0,.08-.54.76.76,0,0,1,0-.15,4,4,0,0,0-.48-2.12A4.51,4.51,0,0,0,64.57,15a24.89,24.89,0,0,1,15.87-4.74c5.9.31,7.94,3.57,8,3.74l.06.09C93,20.06,92.83,20.29,90.46,23ZM106.4,60a15.69,15.69,0,0,1-8.07-29.15l1.87,3.63a11.34,11.34,0,1,0,1.79-.94l-1.87-3.63A15.7,15.7,0,1,1,106.4,60Zm.9-16.17-4.38-8.48a9.62,9.62,0,1,1-1.8.93l4.38,8.48a1,1,0,0,0,.9.55,1,1,0,0,0,.46-.12A1,1,0,0,0,107.3,43.81Z"/><path class="cls-6" d="M86.3,27.18a39.57,39.57,0,0,1-4.61-.43l-1.33-.18a34.48,34.48,0,0,0-8.21-.2c-.87.07-1.78.14-2.86.18a14.83,14.83,0,0,1-4-.39,15.92,15.92,0,0,1-4.76-1.69,1.53,1.53,0,0,1-.42-.42l-.07,0-1.15.27c-1.14.28-2.76.66-4.42,1l-1.56.35a18.3,18.3,0,0,1-3.07.39A1.58,1.58,0,0,0,50,27.11l5.23,10.56,3.71.69,8.36.2A4.61,4.61,0,1,1,71.7,44.5a4.55,4.55,0,0,1-3.44-1.57l-9.84,1H58.3l.19.38a4.17,4.17,0,0,0,3.75,2.33H75.47a3.28,3.28,0,0,0,3.3-2.07L87,28.28a1.5,1.5,0,0,0,.07-1.08l-.68,0Z"/><path class="cls-7" d="M86.3,27.18a39.57,39.57,0,0,1-4.61-.43l-1.33-.18a34.48,34.48,0,0,0-8.21-.2c-.87.07-1.78.14-2.86.18a14.83,14.83,0,0,1-4-.39,15.92,15.92,0,0,1-4.76-1.69,1.53,1.53,0,0,1-.42-.42l-.07,0-1.15.27c-1.14.28-2.76.66-4.42,1l-1.56.35a18.3,18.3,0,0,1-3.07.39A1.58,1.58,0,0,0,50,27.11l5.23,10.56,3.71.69,8.36.2A4.61,4.61,0,1,1,71.7,44.5a4.55,4.55,0,0,1-3.44-1.57l-9.84,1H58.3l.19.38a4.17,4.17,0,0,0,3.75,2.33H75.47a3.28,3.28,0,0,0,3.3-2.07L87,28.28a1.5,1.5,0,0,0,.07-1.08l-.68,0Z"/><path d="M60.06,24l.07,0a.41.41,0,0,1-.07-.11c-.85.24-2.51.67-5.57,1.35,1.66-.34,3.28-.72,4.42-1Z"/><path class="cls-8" d="M60.06,24l.07,0a.41.41,0,0,1-.07-.11c-.85.24-2.51.67-5.57,1.35,1.66-.34,3.28-.72,4.42-1Z"/><path d="M87.05,27.2a.06.06,0,0,1,0,0l-.67,0Z"/><path class="cls-9" d="M87.05,27.2a.06.06,0,0,1,0,0l-.67,0Z"/><path class="cls-6" d="M87.05,27.2A13.36,13.36,0,0,0,89.72,27a3.64,3.64,0,0,1-.3,1.24l-8.75,17.5c-1.11,2.05-1.62,3-5.17,3H62.08A6,6,0,0,1,58,47.18a5.9,5.9,0,0,1-1-1.38l-1-2,2.35.13.19.38a4.17,4.17,0,0,0,3.75,2.33H75.47a3.28,3.28,0,0,0,3.3-2.07L87,28.28A1.5,1.5,0,0,0,87.05,27.2ZM49.86,26h-.71A16.66,16.66,0,0,1,47,25.88L52.65,37.2l2.57.47L50,27.11A1.58,1.58,0,0,1,49.86,26Zm49-7.19c.49.38,1.35.8,1.73.64.22-.09.4-.51.49-1.12,1-4.77-1.76-8-3.11-9.61l-.09-.1A1.79,1.79,0,0,0,97,8.06a1.5,1.5,0,0,0-.37,0c-.86,0-1.81.75-3.56,2.74-1,1.1-1.32,1.63-1.39,2.11a1.53,1.53,0,0,0,.56,1.34Zm8,26.33a1,1,0,0,1-.46.12,1,1,0,0,1-.9-.55l-4.38-8.48a9.66,9.66,0,1,0,1.8-.93l4.38,8.48A1,1,0,0,1,106.86,45.17ZM31.25,34.68A9.6,9.6,0,1,0,41,44.27a10,10,0,0,0-.1-1.34l-7.59-.41-1,2.17a1,1,0,0,1-.92.6.9.9,0,0,1-.42-.1,1,1,0,0,1-.5-1.33l.93-2a4.36,4.36,0,0,1-.16-7.14Zm36,6.32c0-.14-.06-.28-.08-.42l-8.51-.22L34.57,35.9a2.38,2.38,0,0,0-2.68,3.59,2.35,2.35,0,0,0,1.49,1l25,1.37Zm7.06-1.12a2.6,2.6,0,1,0-2.59,2.6A2.6,2.6,0,0,0,74.29,39.88ZM88.48,14c-.1-.17-2.14-3.43-8-3.74A24.89,24.89,0,0,0,64.57,15a4.51,4.51,0,0,1,1.29,1.71,4,4,0,0,1,.48,2.12.76.76,0,0,0,0,.15,5,5,0,0,1-.08.54,1.6,1.6,0,0,1,0,.21c0,.14-.06.29-.11.44A4.06,4.06,0,0,1,64.68,22a.76.76,0,0,0-.09.09l-.28.19a6.82,6.82,0,0,1-.64.39l-.14.08h0c-.28.14-.58.27-.87.39l-.18.08a21.16,21.16,0,0,0,3.3,1,12.89,12.89,0,0,0,3.44.34c1.06,0,2-.11,2.78-.17,1.13-.09,2.18-.17,3.44-.17a41.08,41.08,0,0,1,5.19.38l1.33.17c5.36.7,6.32.82,8.51-1.71,2.37-2.74,2.57-3-1.92-9ZM41.92,22.24A15.92,15.92,0,0,0,52.5,23.66c6.23-1.35,7.61-1.84,7.67-1.86l.11,0a9.71,9.71,0,0,0,3-1.3,2.17,2.17,0,0,0,.7-2.94L64,17.35a4.35,4.35,0,0,0-1.19-1.27.16.16,0,0,0-.14,0,22.23,22.23,0,0,1-16.17-.22,62.83,62.83,0,0,0-8.05-1.28c-6.27-.72-16.8-1.17-17.22-1.18l-3.94.22,1.25,1c.74.59,1.53,1.21,2.25,1.74a6.52,6.52,0,0,0,3,1.18c3.21.41,11.37,1.69,17.82,4.57Z"/></svg>