<svg id="Layer_1" data-name="Layer 1" xmlns="http://www.w3.org/2000/svg" xmlns:xlink="http://www.w3.org/1999/xlink" viewBox="0 0 133 65"><defs><style>.cls-1{fill:url(#linear-gradient);}.cls-2{fill:url(#linear-gradient-2);}.cls-3{fill:#fff;}.cls-4{fill:url(#linear-gradient-3);}.cls-5{fill:url(#linear-gradient-4);}.cls-6{fill:url(#linear-gradient-5);}.cls-7{fill:url(#linear-gradient-6);}.cls-8{fill:url(#linear-gradient-7);}.cls-9{fill:#ed1c24;}</style><linearGradient id="linear-gradient" x1="90.99" y1="51.2" x2="117.52" y2="51.2" gradientUnits="userSpaceOnUse"><stop offset="0" stop-color="#606060"/><stop offset="1" stop-color="#1e1e1e"/></linearGradient><linearGradient id="linear-gradient-2" x1="16.87" y1="51.77" x2="43.34" y2="51.77" xlink:href="#linear-gradient"/><linearGradient id="linear-gradient-3" x1="61.63" y1="14.25" x2="61.63" y2="56.22" gradientUnits="userSpaceOnUse"><stop offset="0" stop-color="#fff" stop-opacity="0.5"/><stop offset="0.99" stop-color="#adadad"/></linearGradient><linearGradient id="linear-gradient-4" x1="65.18" y1="14.25" x2="65.18" y2="56.22" xlink:href="#linear-gradient-3"/><linearGradient id="linear-gradient-5" x1="73.94" y1="14.25" x2="73.94" y2="56.22" xlink:href="#linear-gradient-3"/><linearGradient id="linear-gradient-6" x1="69.92" y1="46.31" x2="69.92" y2="46.8" xlink:href="#linear-gradient-3"/><linearGradient id="linear-gradient-7" x1="77.9" y1="14.25" x2="77.9" y2="56.22" xlink:href="#linear-gradient-3"/></defs><path class="cls-1" d="M116.46,51.22c0-6.48-6-12.36-12.48-12.36a12.9,12.9,0,0,0-5.88,1.72l3.15,4.76a6.68,6.68,0,0,1,3-.66c3.91,0,6.41,2.31,6.41,6.24s-2.5,6.79-6.41,6.79a6.08,6.08,0,0,1-6.46-6.49,6.3,6.3,0,0,1,2.32-4.91L97,41.47A13.78,13.78,0,0,0,92,51.39a12.34,12.34,0,0,0,12,12.14C110.48,63.53,116.46,57.71,116.46,51.22Z"/><path class="cls-2" d="M42.29,51.39a12.94,12.94,0,0,0-1.78-6.61c-.61-.17-1.75-.93-2.34-1.1l-3,3.42a6.85,6.85,0,0,1,1.46,4.29c0,3.91-2.65,6.38-6.56,6.38s-6.46-2.47-6.46-6.38S26.2,45,30.12,45a8,8,0,0,1,4.47,1.28l1.7-3C32,42.13,27.93,41,25,40c-4,1.88-7.21,6-7.11,10.67.18,8.54,5.72,12.85,12.16,12.85A12.52,12.52,0,0,0,42.29,51.39Z"/><path d="M117.93,51.22a13.75,13.75,0,0,0-13.69-13.77,13.59,13.59,0,0,0-6.7,1.77l-1.3-2A26,26,0,0,1,104.76,35a16.64,16.64,0,0,0,1.65-.26,1.36,1.36,0,0,0,.94-.76,1.34,1.34,0,0,0,0-1.19c-4-8.19-13.46-15.94-17.29-18.61.19-.44.57-1.22,1.29-2.61a3.86,3.86,0,0,0-1.08-4.85,39.45,39.45,0,0,0-9.91-5.51C76.78-.19,75-.35,74,.6s-.65,2.51-.14,4.06l.31,1H66.5a1,1,0,1,0,0,2h8.1l.5.77,1.64,5,0,.21h.1l5.34,16.22a6.3,6.3,0,0,1-.38,4.82L76.66,43.7a1.3,1.3,0,0,1-1.15.66h0l-.29,0c-.58,0-1.93.08-3.39.12a37.93,37.93,0,0,1-4.31,0l-.15,0A2.94,2.94,0,0,1,65,41.94L63.39,29.43c-.18-3.2-1.89-4.17-3.65-4.68a6.78,6.78,0,0,0,3-5.25,3.37,3.37,0,0,0,0-1.1c-.3-1.7-1.68-4.58-7.5-4.52H50.09c-6.94,0-17.44,0-21.77.3a7.1,7.1,0,0,0-4.16,1.62,4.77,4.77,0,0,0-1.37,4.51,4.43,4.43,0,0,0,1.68,2.46,14.36,14.36,0,0,0-4.37,2l-1.23.84a9.65,9.65,0,0,0-1.79,1.53,6.8,6.8,0,0,0-.81,8.69,7.67,7.67,0,0,0,3.48,2.75c.76.34,1.72.71,2.85,1.11a13.7,13.7,0,1,0,20,6q3,.84,6.28,1.72a2.06,2.06,0,0,1,1.24,1l3.9,7A4.19,4.19,0,0,0,58,57.67h.11l9.24,0c7.4,0,15.79,0,18.46-.09A1.87,1.87,0,0,0,87.12,57a1.78,1.78,0,0,0,.48-1.3c-.4-9.7,2.9-14.73,6.89-17.43l1.37,2.11a13.73,13.73,0,1,0,22.07,10.87ZM30.09,63a11.76,11.76,0,0,1-4.93-22.4c2.89,1,6.53,2,10.81,3.26l-1.7,1.81a7.09,7.09,0,1,0,1.45,1.4l2.43-2.59L40,45a11.74,11.74,0,0,1-9.86,18Zm-.35-11a1,1,0,0,0,1.42-.05l3.16-3.37a5.08,5.08,0,1,1-4.2-2.23,5.14,5.14,0,0,1,2.76.82l-3.19,3.4A1,1,0,0,0,29.74,52ZM20.56,36.75a5.72,5.72,0,0,1-2.58-2,6.63,6.63,0,0,1-.54-1.06h0a.06.06,0,0,1,0,0,5.11,5.11,0,0,1-.22-.7c0-.12,0-.23-.06-.34s0-.28,0-.42,0-.3,0-.44,0-.19,0-.29a4.19,4.19,0,0,1,.13-.67v0a4.43,4.43,0,0,1,.61-1.32l.05-.06a6.69,6.69,0,0,1,.67-.89A7.53,7.53,0,0,1,20,27.3l1.23-.85a12.22,12.22,0,0,1,4.2-1.84,11.82,11.82,0,0,1,2.72-.31l.89,0,2.59.19,27.12,2.05c1.75.44,2.5,1,2.62,3.05L63,42.2a5.17,5.17,0,0,0,.43,1.48,5,5,0,0,0,3.47,2.75h0a17.22,17.22,0,0,0,3,.13h.36l1.56,0c1.83-.05,3.52-.13,3.71-.14a3.4,3.4,0,0,0,2.06-.73A3.47,3.47,0,0,0,78.2,45a2.85,2.85,0,0,0,.23-.37l5.11-9a8.26,8.26,0,0,0,.52-6.41L79,13.92l7,1,2,.28a1.48,1.48,0,0,0,.26.21c.73.49,1.84,1.29,3.14,2.32l.19.15.22.18,1,.8c.49.41,1,.84,1.51,1.3,3.8,3.35,8.23,7.94,10.79,12.73l-.67.09c-5.38.66-19.64,2.41-18.91,22.42-1.88,0-6.12.06-10.83.1-6.15.06-13.12.12-16.66.18a2.25,2.25,0,0,1-2.25-1.26l-3.91-7a4.06,4.06,0,0,0-2.47-1.93C37.11,42.12,25.08,38.75,20.56,36.75Zm4.18-16.92a2.87,2.87,0,0,1,.75-2.52,5.19,5.19,0,0,1,3-1.12c4.26-.33,14.71-.31,21.62-.29h5.14c2.27,0,5.08.47,5.51,2.86a1.67,1.67,0,0,1,0,.51c-.4,5-5.92,4.94-6,4.93L37.5,23l-8.3-.63c-.2,0-.41,0-.61,0l-.46,0C26.76,21.92,25.09,21.22,24.74,19.83ZM79.64,3.06A37.14,37.14,0,0,1,89,8.28a1.85,1.85,0,0,1,.52,2.32c-.58,1.11-1,1.94-1.29,2.57l-9.93-1.38L75.78,4a4.31,4.31,0,0,1-.39-2C75.45,2,76.12,1.72,79.64,3.06ZM92.57,51.22A11.79,11.79,0,0,1,97,42l2.53,3.89a7.09,7.09,0,1,0,4.75-1.84,7.11,7.11,0,0,0-3.08.71l-2.52-3.89a11.52,11.52,0,0,1,5.6-1.45A11.76,11.76,0,1,1,92.57,51.22Zm10.82.72a1,1,0,0,0,.85.45,1,1,0,0,0,.85-1.55l-2.82-4.33a5,5,0,0,1,2-.41,5.12,5.12,0,1,1-5.08,5.12,5.16,5.16,0,0,1,1.45-3.57Z"/><path class="cls-3" d="M17.25,30.8v0Z"/><path class="cls-3" d="M17.1,31.76c0-.1,0-.2,0-.29C17.11,31.57,17.11,31.66,17.1,31.76Z"/><path class="cls-3" d="M17.43,33.66a4,4,0,0,1-.22-.7A5.11,5.11,0,0,0,17.43,33.66Z"/><path class="cls-3" d="M17.15,32.62c0-.14,0-.28,0-.42C17.11,32.34,17.13,32.48,17.15,32.62Z"/><path class="cls-3" d="M99.16,51.22a5.16,5.16,0,0,1,1.45-3.57l2.78,4.29a1,1,0,0,0,.85.45,1,1,0,0,0,.85-1.55l-2.82-4.33a5,5,0,0,1,2-.41,5.12,5.12,0,1,1-5.08,5.12ZM32.88,47.13a5.14,5.14,0,0,0-2.76-.82,5.07,5.07,0,1,0,4.2,2.23l-3.16,3.37a1,1,0,0,1-1.42.05,1,1,0,0,1,0-1.43ZM28.59,22.3c.2,0,.41,0,.61,0l8.3.63L54.75,24.2s5.56.07,6-4.93a1.67,1.67,0,0,0,0-.51c-.43-2.39-3.24-2.86-5.51-2.86H50.09c-6.91,0-17.36,0-21.62.29a5.19,5.19,0,0,0-3,1.12,2.87,2.87,0,0,0-.75,2.52c.35,1.39,2,2.09,3.39,2.44ZM49.44,45.48a4.06,4.06,0,0,1,2.47,1.93l3.91,7a2.25,2.25,0,0,0,2.25,1.26c3.54-.06,10.51-.12,16.66-.18,4.71,0,9-.07,10.83-.1-.73-20,13.53-21.76,18.91-22.42l.67-.09c-2.56-4.79-7-9.38-10.79-12.73-.51-.46-1-.89-1.51-1.3l-1-.8-.22-.18-.19-.15c-1.3-1-2.41-1.83-3.14-2.32a1.48,1.48,0,0,1-.26-.21l-2-.28C90.27,18.38,98,25.21,101.37,30.44c.35.55.07.83-.57.95-4,.75-16.71,3.29-17.5,21.39a.72.72,0,0,1-.68.76c-3.37.07-17.39-.07-22.7,0a2.79,2.79,0,0,1-2.7-1.69s-2.16-3.43-3.93-6.21a4.33,4.33,0,0,0-2.42-1.82C39.07,40.39,37.09,40,24.6,36.23a4.93,4.93,0,0,1-2.54-2.16c-1.21-2.28,1.18-4.78,5.33-7.32a27.86,27.86,0,0,1,4.25-2.23l-2.59-.19-.89,0a11.82,11.82,0,0,0-2.72.31,12.22,12.22,0,0,0-4.2,1.84L20,27.3a7.53,7.53,0,0,0-1.43,1.21,6.69,6.69,0,0,0-.67.89,1,1,0,0,1,1.44-.19.7.7,0,0,1,0,.82,5.67,5.67,0,0,0-.66,1.67A1.83,1.83,0,0,0,19,33.16a.58.58,0,0,1-.31.84,1,1,0,0,1-1.2-.29A6.63,6.63,0,0,0,18,34.77a5.72,5.72,0,0,0,2.58,2C25.08,38.75,37.11,42.12,49.44,45.48ZM75.78,4l2.55,7.76,9.93,1.38c.29-.63.71-1.46,1.29-2.57A1.85,1.85,0,0,0,89,8.28a37.14,37.14,0,0,0-9.39-5.22c-3.52-1.34-4.19-1-4.25-1A4.31,4.31,0,0,0,75.78,4Z"/><path class="cls-3" d="M27.39,26.75c-4.15,2.54-6.54,5-5.33,7.32a4.93,4.93,0,0,0,2.54,2.16C37.09,40,39.07,40.39,50.87,43.85a4.33,4.33,0,0,1,2.42,1.82c1.77,2.78,3.93,6.21,3.93,6.21a2.79,2.79,0,0,0,2.7,1.69c5.31-.1,19.33,0,22.7,0a.72.72,0,0,0,.68-.76c.79-18.1,13.51-20.64,17.5-21.39.64-.12.92-.4.57-.95C98,25.21,90.27,18.38,86.06,14.9l-7-1,5,15.28a8.26,8.26,0,0,1-.52,6.41l-5.11,9a2.85,2.85,0,0,1-.23.37,3.47,3.47,0,0,1-.59.62,3.4,3.4,0,0,1-2.06.73c-.74,0-3.14.15-5.27.17h-.36a17.22,17.22,0,0,1-3-.13h0a5,5,0,0,1-3.47-2.75A5.17,5.17,0,0,1,63,42.2L61.38,29.62c-.12-2.08-.87-2.61-2.62-3.05L31.64,24.52A27.86,27.86,0,0,0,27.39,26.75Z"/><path class="cls-4" d="M27.39,26.75c-4.15,2.54-6.54,5-5.33,7.32a4.93,4.93,0,0,0,2.54,2.16C37.09,40,39.07,40.39,50.87,43.85a4.33,4.33,0,0,1,2.42,1.82c1.77,2.78,3.93,6.21,3.93,6.21a2.79,2.79,0,0,0,2.7,1.69c5.31-.1,19.33,0,22.7,0a.72.72,0,0,0,.68-.76c.79-18.1,13.51-20.64,17.5-21.39.64-.12.92-.4.57-.95C98,25.21,90.27,18.38,86.06,14.9l-7-1,5,15.28a8.26,8.26,0,0,1-.52,6.41l-5.11,9a2.85,2.85,0,0,1-.23.37,3.47,3.47,0,0,1-.59.62,3.4,3.4,0,0,1-2.06.73c-.74,0-3.14.15-5.27.17h-.36a17.22,17.22,0,0,1-3-.13h0a5,5,0,0,1-3.47-2.75A5.17,5.17,0,0,1,63,42.2L61.38,29.62c-.12-2.08-.87-2.61-2.62-3.05L31.64,24.52A27.86,27.86,0,0,0,27.39,26.75Z"/><path d="M66.91,46.43h0a5,5,0,0,1-3.47-2.75A5,5,0,0,0,66.91,46.43Z"/><path class="cls-5" d="M66.91,46.43h0a5,5,0,0,1-3.47-2.75A5,5,0,0,0,66.91,46.43Z"/><path d="M77.61,45.65a3.4,3.4,0,0,1-2.06.73c-.19,0-1.88.09-3.71.14l-1.56,0c2.13,0,4.53-.13,5.27-.17A3.4,3.4,0,0,0,77.61,45.65Z"/><path class="cls-6" d="M77.61,45.65a3.4,3.4,0,0,1-2.06.73c-.19,0-1.88.09-3.71.14l-1.56,0c2.13,0,4.53-.13,5.27-.17A3.4,3.4,0,0,0,77.61,45.65Z"/><path d="M69.92,46.56h0Z"/><path class="cls-7" d="M69.92,46.56h0Z"/><path d="M78.2,45a3.47,3.47,0,0,1-.59.62A3.47,3.47,0,0,0,78.2,45Z"/><path class="cls-8" d="M78.2,45a3.47,3.47,0,0,1-.59.62A3.47,3.47,0,0,0,78.2,45Z"/><path class="cls-9" d="M18.64,34a.58.58,0,0,0,.31-.84,1.83,1.83,0,0,1-.21-1.46A5.67,5.67,0,0,1,19.4,30a.7.7,0,0,0,0-.82,1,1,0,0,0-1.44.19l-.05.06a4.43,4.43,0,0,0-.61,1.32v0a4.19,4.19,0,0,0-.13.67c0,.09,0,.19,0,.29s0,.29,0,.44,0,.28,0,.42,0,.22.06.34a4,4,0,0,0,.22.7.06.06,0,0,0,0,0h0A1,1,0,0,0,18.64,34Z"/></svg>