<svg id="Layer_1" data-name="Layer 1" xmlns="http://www.w3.org/2000/svg" xmlns:xlink="http://www.w3.org/1999/xlink" viewBox="0 0 133 59"><defs><style>.cls-1{fill:url(#linear-gradient);}.cls-2{fill:url(#linear-gradient-2);}.cls-3{fill:#ed1c24;}.cls-4{fill:#fff;}.cls-5{fill:url(#linear-gradient-3);}.cls-6{fill:url(#linear-gradient-4);}.cls-7{fill:url(#linear-gradient-5);}.cls-8{fill:url(#linear-gradient-6);}.cls-9{fill:url(#linear-gradient-7);}.cls-10{fill:url(#linear-gradient-8);}</style><linearGradient id="linear-gradient" x1="96.45" y1="42.56" x2="128.55" y2="42.56" gradientUnits="userSpaceOnUse"><stop offset="0" stop-color="#606060"/><stop offset="1" stop-color="#1e1e1e"/></linearGradient><linearGradient id="linear-gradient-2" x1="4.02" y1="42.49" x2="36.73" y2="42.49" xlink:href="#linear-gradient"/><linearGradient id="linear-gradient-3" x1="58.4" y1="3.66" x2="58.4" y2="52.39" gradientUnits="userSpaceOnUse"><stop offset="0" stop-color="#fff" stop-opacity="0.5"/><stop offset="0.99" stop-color="#adadad"/></linearGradient><linearGradient id="linear-gradient-4" x1="31.68" y1="3.66" x2="31.68" y2="52.39" xlink:href="#linear-gradient-3"/><linearGradient id="linear-gradient-5" x1="72.13" y1="3.66" x2="72.13" y2="52.39" xlink:href="#linear-gradient-3"/><linearGradient id="linear-gradient-6" x1="46.42" y1="3.66" x2="46.42" y2="52.39" xlink:href="#linear-gradient-3"/><linearGradient id="linear-gradient-7" x1="34.03" y1="3.66" x2="34.03" y2="52.39" xlink:href="#linear-gradient-3"/><linearGradient id="linear-gradient-8" x1="5.01" y1="28.15" x2="35.97" y2="28.15" xlink:href="#linear-gradient"/></defs><path class="cls-1" d="M112.5,27.52a16.25,16.25,0,0,0-9.59,3.65l4.44,5.15a9.09,9.09,0,0,1,5.16-1.77c4.65,0,7.69,3.32,7.69,8s-3,7.75-7.69,7.75-7.88-3.09-7.88-7.75a8.61,8.61,0,0,1,2-5.53l-4.71-5a17,17,0,0,0-4.43,10.7,15.34,15.34,0,0,0,15,14.9c8,0,15-7.1,15-15.08A15.42,15.42,0,0,0,112.5,27.52Z"/><path class="cls-2" d="M29.18,47.9a3.37,3.37,0,0,1,1.41-2.66,3.1,3.1,0,0,1,2.63-1.18l2.44-.37c0-.38,0-.77,0-1.17A16.65,16.65,0,0,0,30.23,31l-4.32,5.41a8.46,8.46,0,0,1,2.22,6.1c0,4.65-3,7.67-7.64,7.67s-7.82-3-7.82-7.69,3.17-8,7.82-8a9.36,9.36,0,0,1,4.59,1.39l4.1-5.6C26.93,27.22,18,27.44,18,27.44c-7,1-12.95,7.82-12.95,15.08,0,8,7.43,15,15.41,15a17.43,17.43,0,0,0,12-5.7,7.92,7.92,0,0,1-2.16-1.33A3.12,3.12,0,0,1,29.18,47.9Z"/><path class="cls-3" d="M9.66,21.86a.54.54,0,0,0-.39.64l.73,3a.53.53,0,0,0,.63.39l1.76-.43-1-4Z"/><path class="cls-4" d="M45.05,30.73a22.31,22.31,0,0,1-5.22.22h-.18a6.94,6.94,0,0,1-4.87-2.54l-.15-.16c-.12-.15-.24-.29-.36-.45s-.33-.45-.49-.69c0,0,0,0,0,0l-.54.69a21,21,0,0,1,5.87,16.24l23.36,2a5.23,5.23,0,0,0,2.15-.27l3.87-1.31a5.39,5.39,0,0,1-.5-2.27,5.45,5.45,0,1,1,5.44,5.45,6.32,6.32,0,0,1-.75-.06l-1.78,1h4.31a3.26,3.26,0,0,0,3.25-1.85l4.86-8.34a2,2,0,0,0,.27-1V30.12A2,2,0,0,0,83.23,29H61.87A7.55,7.55,0,0,1,61,29a5.85,5.85,0,0,1-3.93-1.73,3.19,3.19,0,0,1-.91.6A13.24,13.24,0,0,1,53,29.19,47.36,47.36,0,0,1,45.05,30.73Z"/><path class="cls-5" d="M45.05,30.73a22.31,22.31,0,0,1-5.22.22h-.18a6.94,6.94,0,0,1-4.87-2.54l-.15-.16c-.12-.15-.24-.29-.36-.45s-.33-.45-.49-.69c0,0,0,0,0,0l-.54.69a21,21,0,0,1,5.87,16.24l23.36,2a5.23,5.23,0,0,0,2.15-.27l3.87-1.31a5.39,5.39,0,0,1-.5-2.27,5.45,5.45,0,1,1,5.44,5.45,6.32,6.32,0,0,1-.75-.06l-1.78,1h4.31a3.26,3.26,0,0,0,3.25-1.85l4.86-8.34a2,2,0,0,0,.27-1V30.12A2,2,0,0,0,83.23,29H61.87A7.55,7.55,0,0,1,61,29a5.85,5.85,0,0,1-3.93-1.73,3.19,3.19,0,0,1-.91.6A13.24,13.24,0,0,1,53,29.19,47.36,47.36,0,0,1,45.05,30.73Z"/><path class="cls-4" d="M31.79,26.4l.34-.44c-.27-.12-.58-.23-.9-.34a.58.58,0,0,0,.21.46Z"/><path class="cls-6" d="M31.79,26.4l.34-.44c-.27-.12-.58-.23-.9-.34a.58.58,0,0,0,.21.46Z"/><path d="M83.23,29l0,0H61.44L61,29a7.55,7.55,0,0,0,.83.05Z"/><path class="cls-7" d="M83.23,29l0,0H61.44L61,29a7.55,7.55,0,0,0,.83.05Z"/><path d="M45.05,30.73a47.36,47.36,0,0,0,8-1.54,56.72,56.72,0,0,1-8.38,1.51,29.51,29.51,0,0,1-3.7.3c-.38,0-.74,0-1.09-.05A22.31,22.31,0,0,0,45.05,30.73Z"/><path class="cls-8" d="M45.05,30.73a47.36,47.36,0,0,0,8-1.54,56.72,56.72,0,0,1-8.38,1.51,29.51,29.51,0,0,1-3.7.3c-.38,0-.74,0-1.09-.05A22.31,22.31,0,0,0,45.05,30.73Z"/><path d="M33.78,27.09h0c.16.24.33.47.49.69C34.11,27.56,33.94,27.33,33.78,27.09Z"/><path class="cls-9" d="M33.78,27.09h0c.16.24.33.47.49.69C34.11,27.56,33.94,27.33,33.78,27.09Z"/><path d="M112.51,26A16.42,16.42,0,0,0,102,29.81l-3.09-3.22,1.46-1.45a2,2,0,0,0,.6-1.44,2,2,0,0,0-.6-1.43l-1.91-1.91a7.31,7.31,0,0,0,1.61-.2l1.05-.25h0a3.11,3.11,0,0,0,2.3-3.75l-1.82-7.61a3.11,3.11,0,0,0-3.75-2.3l-1,.25a7,7,0,0,0-5.38,6.81L88.3,10.16a2.07,2.07,0,0,0-2.87,0l-1.15,1.15L74.48,1.1A3.59,3.59,0,0,0,71.9,0H62.56a1,1,0,0,0,0,2H71.9A1.59,1.59,0,0,1,73,2.49l9.82,10.24-1.6,1.61a2,2,0,0,0-.41.59l-.38-.13-1.41-.28c-7.42-1.3-17-.66-21.73,5.14A8.64,8.64,0,0,0,56,22.25c-2.08-1.29-5.89-1.79-13-1.9-5.76-.08-6.88-1.57-7.7-2.65a3.6,3.6,0,0,0-1.9-1.54c-2.58-.78-14.43-.05-14.54,0a2.75,2.75,0,0,0-1.12.3,3,3,0,0,0-.51.34l-.7-2.83a3.42,3.42,0,0,0-6.63,1.65l1.46,5.87,1,4,.6,2.39A16.46,16.46,0,1,0,33.76,52.26H62.57l.29,0H78.65a3.82,3.82,0,0,0,3.29-2l5.82-10.45a4.29,4.29,0,0,0,.57-2.17V28.06c.1-.06.21-.11.31-.18a6.26,6.26,0,0,0,1.57-1.71l3.14,3.14a2,2,0,0,0,2.87,0l1.3-1.3,3,3.18A16.45,16.45,0,1,0,112.51,26ZM97.29,8.45l1-.25.26,0a1.08,1.08,0,0,1,.58.16,1.13,1.13,0,0,1,.5.69l1.82,7.61a1.09,1.09,0,0,1-.82,1.33l-1,.25a5,5,0,0,1-6.06-3.71A5,5,0,0,1,97.29,8.45ZM56.2,27.82a3.19,3.19,0,0,0,.91-.6A5.85,5.85,0,0,0,61,29l.4,0H83.21l0,0h2.16c.17,0,.34,0,.51,0v8.65a2.42,2.42,0,0,1-.31,1.18L79.76,49.25a1.79,1.79,0,0,1-1.54,1H68.09l2.79-1.57,1.78-1a6.32,6.32,0,0,0,.75.06A5.45,5.45,0,1,0,68,42.25a5.39,5.39,0,0,0,.5,2.27L64.6,45.83a5.23,5.23,0,0,1-2.15.27l-23.36-2-1.75-.16c0-.44.06-.89.06-1.35A16.41,16.41,0,0,0,31.54,30l1.68-2.16.54-.69s0,0,0,0h0c.16.24.33.47.49.69s.24.3.36.45l.15.16a6.94,6.94,0,0,0,4.87,2.54h.18c.35,0,.71.05,1.09.05a29.51,29.51,0,0,0,3.7-.3A56.72,56.72,0,0,0,53,29.19,13.24,13.24,0,0,0,56.2,27.82ZM70,42.25a3.45,3.45,0,1,1,3.44,3.44A3.44,3.44,0,0,1,70,42.25ZM22.28,26.15A15.22,15.22,0,0,0,20.49,26c-.17,0-.33,0-.49,0l-.83-3.31c.7.19,1.6.39,2.74.63s2.58.59,3.88.86c.86.17,1.74.36,2.6.55,1,.26,2,.54,2.84.82.32.11.63.22.9.34l-.34.44-1.86,2.38A16.28,16.28,0,0,0,22.28,26.15Zm-3.63-7.94a1,1,0,0,1,.36-.09c2-.14,6.11-.32,9.36-.32a22.21,22.21,0,0,1,4.48.28c.31.09.5.33.87.82,1,1.34,2.53,3.36,9.27,3.46,8.37.12,12,.84,12.88,2.49A.81.81,0,0,1,55.35,26l-.13.07C53,27.4,50.11,28,44.36,28.71c-5.41.71-7,.2-9-2.89-1.2-1.85-5.63-2.88-11.76-4.14a31.91,31.91,0,0,1-4.94-1.22,1.34,1.34,0,0,1-.6-1.21A1.19,1.19,0,0,1,18.65,18.21ZM11.86,15.1a1.42,1.42,0,0,1,.85-1.65,1.37,1.37,0,0,1,1.17.05,1.4,1.4,0,0,1,.72.92l3,11.9a16.53,16.53,0,0,0-2.72.74ZM20.49,57a14.48,14.48,0,0,1,0-28.95,13.82,13.82,0,0,1,1.58.09,14.43,14.43,0,0,1,6.51,2.38l-3.73,4.79a8.32,8.32,0,0,0-4.36-1.23,8.45,8.45,0,1,0,5.94,2.45l3.71-4.76A14.42,14.42,0,0,1,35,42.52c0,.4,0,.78-.05,1.17l-1.66-.15A4.37,4.37,0,0,0,29.84,51a4.39,4.39,0,0,0,1.59,1A14.43,14.43,0,0,1,20.49,57Zm-.62-13.69a1,1,0,0,0,.62.21,1,1,0,0,0,.79-.38l3.9-5a6.43,6.43,0,1,1-4.69-2,6.46,6.46,0,0,1,3.12.8l-3.91,5A1,1,0,0,0,19.87,43.31Zm42.69,7-29.6,0a2.46,2.46,0,0,1-1.69-.7,2.36,2.36,0,0,1,1.82-4L62.28,48.1a7.31,7.31,0,0,0,3-.37l4.44-1.51a5.4,5.4,0,0,0,.58.47l-5,2.78A5.3,5.3,0,0,1,62.56,50.27Zm24.92-24A4.34,4.34,0,0,1,85,27H61.44a3.8,3.8,0,0,1-3.09-1.37c-.92-1.29-.72-2.9.57-4.72,3-3.63,8.31-4.92,13.62-4.92a35.31,35.31,0,0,1,6.17.55l1.25.23a7.36,7.36,0,0,1,1.85.95l6.94,7A4.2,4.2,0,0,1,87.48,26.25Zm7.3,1.64L89,22.14l-5.8-5.87a2.66,2.66,0,0,0-.31-.26l-.26-.26,4.21-4.17,6,5.94c.59.59,1,.95,1.43,1.44L99,23.68a0,0,0,0,1,0,0ZM112.51,57A14.45,14.45,0,0,1,102,32.65l4.11,4.42a8.52,8.52,0,1,0,1.47-1.36l-4.12-4.43A14.47,14.47,0,1,1,112.51,57Zm.73-15.16-4.33-4.65a6.44,6.44,0,0,1,10,5.33,6.44,6.44,0,1,1-11.5-4l4.33,4.65a1,1,0,0,0,.73.32,1,1,0,0,0,.68-.26A1,1,0,0,0,113.24,41.84Z"/><path d="M19.32,28.17c.12,0,1.12-.09,1.6-.09s.77,0,1.15.06a13.82,13.82,0,0,0-1.58-.09,14.63,14.63,0,0,0-2.1.17v0Z"/><path class="cls-10" d="M19.32,28.17c.12,0,1.12-.09,1.6-.09s.77,0,1.15.06a13.82,13.82,0,0,0-1.58-.09,14.63,14.63,0,0,0-2.1.17v0Z"/><path class="cls-4" d="M31.79,26.4l-1.86,2.38a16.28,16.28,0,0,0-7.65-2.63A15.22,15.22,0,0,0,20.49,26c-.17,0-.33,0-.49,0l-.83-3.31c.7.19,1.6.39,2.74.63s2.58.59,3.88.86c.86.17,1.74.36,2.6.55,1,.26,2,.54,2.84.82a.58.58,0,0,0,.21.46Zm1.43,1.42L31.54,30A16.41,16.41,0,0,1,37.4,42.55c0,.46,0,.91-.06,1.35l1.75.16A21,21,0,0,0,33.22,27.82Zm50.35,9.61a2,2,0,0,1-.27,1l-4.86,8.34a3.26,3.26,0,0,1-3.25,1.85H70.88l-2.79,1.57H78.22a1.79,1.79,0,0,0,1.54-1L85.59,38.8a2.42,2.42,0,0,0,.31-1.18V29c-.17,0-.34,0-.51,0H83.23a2,2,0,0,1,.34,1.12ZM99,23.68,94.26,19l-1.43-1.44-6-5.94-4.21,4.17.26.26a2.66,2.66,0,0,1,.31.26L89,22.14l5.74,5.75L99,23.72A0,0,0,0,0,99,23.68ZM80,16.73l-1.25-.23A35.31,35.31,0,0,0,72.54,16c-5.31,0-10.66,1.29-13.62,4.92-1.29,1.82-1.49,3.43-.57,4.72A3.8,3.8,0,0,0,61.44,27H85a4.34,4.34,0,0,0,2.52-.71,4.2,4.2,0,0,0,1.27-1.55l-6.94-7A7.36,7.36,0,0,0,80,16.73ZM14.6,14.42a1.4,1.4,0,0,0-.72-.92,1.37,1.37,0,0,0-1.17-.05,1.42,1.42,0,0,0-.85,1.65l3,12a16.53,16.53,0,0,1,2.72-.74Zm81.24,3.19a5,5,0,0,0,3.8.6l1-.25a1.09,1.09,0,0,0,.82-1.33L99.68,9a1.13,1.13,0,0,0-.5-.69,1.08,1.08,0,0,0-.58-.16l-.26,0-1,.25a5,5,0,0,0-1.45,9.16Zm16.67,25.91a1,1,0,0,1-.73-.32l-4.33-4.65a6.42,6.42,0,1,0,1.46-1.36l4.33,4.65a1,1,0,0,1,0,1.42A1,1,0,0,1,112.51,43.52Zm-88.9-6.63a6.44,6.44,0,1,0,3.32,5.63,6.39,6.39,0,0,0-1.75-4.39l-3.9,5a1,1,0,0,1-.79.38,1,1,0,0,1-.62-.21,1,1,0,0,1-.17-1.4Zm-5-16.43a31.91,31.91,0,0,0,4.94,1.22C29.7,22.94,34.13,24,35.33,25.82c2,3.09,3.62,3.6,9,2.89C50.11,28,53,27.4,55.22,26.08l.13-.07a.81.81,0,0,0,.52-1.16C55,23.2,51.36,22.48,43,22.36c-6.74-.1-8.26-2.12-9.27-3.46-.37-.49-.56-.73-.87-.82a22.21,22.21,0,0,0-4.48-.28c-3.25,0-7.31.18-9.36.32a1,1,0,0,0-.36.09,1.19,1.19,0,0,0-.62,1A1.34,1.34,0,0,0,18.63,20.46ZM70.27,46.69a5.4,5.4,0,0,1-.58-.47l-4.44,1.51a7.31,7.31,0,0,1-3,.37L33.09,45.54a2.37,2.37,0,0,0-1.73.61,2.36,2.36,0,0,0-.09,3.4,2.46,2.46,0,0,0,1.69.7l29.6,0a5.3,5.3,0,0,0,2.76-.8Zm6.59-4.44a3.45,3.45,0,1,0-3.45,3.44A3.45,3.45,0,0,0,76.86,42.25Z"/></svg>