<svg id="Layer_1" data-name="Layer 1" xmlns="http://www.w3.org/2000/svg" xmlns:xlink="http://www.w3.org/1999/xlink" viewBox="0 0 133 72"><defs><style>.cls-1{fill:url(#linear-gradient);}.cls-2{fill:url(#linear-gradient-2);}.cls-3{fill:#ed1c24;}.cls-4{fill:#fff;}.cls-5{fill:url(#linear-gradient-3);}</style><linearGradient id="linear-gradient" x1="92.56" y1="57.35" x2="119.79" y2="57.35" gradientUnits="userSpaceOnUse"><stop offset="0" stop-color="#606060"/><stop offset="1" stop-color="#1e1e1e"/></linearGradient><linearGradient id="linear-gradient-2" x1="16.84" y1="57.05" x2="46.83" y2="57.05" xlink:href="#linear-gradient"/><linearGradient id="linear-gradient-3" x1="63.93" y1="19.33" x2="63.93" y2="63.81" gradientUnits="userSpaceOnUse"><stop offset="0" stop-color="#fff" stop-opacity="0.5"/><stop offset="0.99" stop-color="#adadad"/></linearGradient></defs><path class="cls-1" d="M118.74,57.55c0-6.63-5.83-12.86-12.46-12.86a15.47,15.47,0,0,0-5.16.84l2.59,5.79a6.81,6.81,0,0,1,2.2-.52,6.72,6.72,0,0,1,7,6.75,6.34,6.34,0,0,1-6.66,6.65c-3.94,0-6.25-2.71-6.25-6.65a7.19,7.19,0,0,1,3-5.91l-2.72-5.17c-3.43,2.12-6.74,6.75-6.74,11.08A12.71,12.71,0,0,0,106,70C112.58,70,118.74,64.17,118.74,57.55Z"/><path class="cls-2" d="M45.78,57.25A23.72,23.72,0,0,0,44.3,49.5c-.21-.4-4.28-1.25-6.12-1.9L36,51.23a7.17,7.17,0,0,1,2.46,5.57,6.3,6.3,0,0,1-6.56,6.69c-3.95,0-6.15-2.75-6.15-6.69s2-5.77,5.9-5.77c1,0,2.67-.64,3.56-.25L37.34,47c-2.46-.91-9.15-3.61-9.18-3.6C22.48,45,17.9,50.65,17.9,56.55c0,7.29,6.68,14.17,14,14.17S45.78,64.53,45.78,57.25Z"/><path class="cls-3" d="M15.45,30.92A12.89,12.89,0,0,0,14.39,28c-.09-.18-.17-.36-.24-.53a1.18,1.18,0,0,0-.79,0c-1.48.57-.07,1.54.44,3.54.43,1.69-.58,2.09.1,3A1.06,1.06,0,0,0,15,34.4a5.05,5.05,0,0,1,.25-1A4.25,4.25,0,0,0,15.45,30.92Z"/><path d="M120.3,57.55a14,14,0,0,0-14-14,13.89,13.89,0,0,0-5.4,1.09l-1.21-2.4A16.33,16.33,0,0,1,104.11,41a3.88,3.88,0,0,0,2.74-1.75c1.12-1.72,1.76-2.11,1.93-2.19l.25-.12a5.71,5.71,0,0,0,3-4c.76-3.86-1.84-9.54-8-17.35C92.74,1.08,91.86.11,90.86,0l-.5,0L90,.29c-2.72,2.41.64,7.85,5,14.18.89,1.3,1.73,2.53,2,3l0,.07c-.2,1.07-5.09,3.33-7.59,4.45l-4.79-8.21a3.38,3.38,0,0,0-4.27-1.45l-4.19,1.79A1,1,0,1,0,77,16l4.19-1.79a1.38,1.38,0,0,1,1.76.6l4.69,8c-.93.42-1.72.79-2.24,1.09A5.42,5.42,0,0,0,82.74,28a11.81,11.81,0,0,0,.92,6.26,4.45,4.45,0,0,1,.48,2.8c-.62,2.78-3.59,5.9-3.62,5.93a2.16,2.16,0,0,1-1.61.46H78.8c-.37,0-6.4.08-8,0a1,1,0,0,1-.9-.64c2.36-1.24,5.3-4.05,3.89-8.24C72.1,30.34,69.13,30.2,65,30a45.75,45.75,0,0,1-10.83-1.55c-.33-.09-3-1.09-7.86-3-17.07-5.76-23.15-4.42-25.23-2.24a23.17,23.17,0,0,1-4.5.5l-.66,0a2.5,2.5,0,0,0-2.07,1c-.48.8-.18,1.71.28,2.74.07.17.15.35.24.53a12.89,12.89,0,0,1,1.06,2.92,4.25,4.25,0,0,1-.18,2.46,5.05,5.05,0,0,0-.25,1c-.11.92.18,1.83,1.6,3.09l.09.08a69.68,69.68,0,0,0,9.14,5.28,15.19,15.19,0,1,0,20.38,9c2.13,2.56,5.81,7.1,8,9.78a5.3,5.3,0,0,0,4.14,2h0l28.57,0a3.34,3.34,0,0,0,2.5-1,2.75,2.75,0,0,0,.67-2.2,36.19,36.19,0,0,1-.24-3.92,16.42,16.42,0,0,1,8-13.32l1.21,2.4a14,14,0,1,0,21.19,12ZM87.87,56.36a37.4,37.4,0,0,0,.25,4.22.78.78,0,0,1-.16.66,1.45,1.45,0,0,1-1,.32l-28.56,0h0a3.34,3.34,0,0,1-2.59-1.23c-2.45-3-6.85-8.45-8.75-10.7a5.68,5.68,0,0,0-2.69-1.77C40.48,46.76,27.23,42.48,17.91,36c-1.07-1-1-1.16-.75-2a6.19,6.19,0,0,0,.25-3.47,15.12,15.12,0,0,0-1.21-3.37,10.13,10.13,0,0,1-.56-1.36,2.36,2.36,0,0,1,.41-.05l.65,0c1.58-.08,2.73-.16,3.58-.28A4.08,4.08,0,0,0,20.4,27a4.42,4.42,0,0,0,2.34,2.74l1.14.58c7.48,3.78,25.72,12.18,36.85,13.83a15.25,15.25,0,0,0,7.33-.59,3,3,0,0,0,2.63,1.87c1.61.11,7.39.05,8.14,0A4,4,0,0,0,82,44.36c.13-.14,3.39-3.55,4.12-6.88a6.31,6.31,0,0,0-.56-4,9.85,9.85,0,0,1-.8-5.31,3.4,3.4,0,0,1,1.65-2.56c.62-.37,1.83-.91,3.24-1.53a50.54,50.54,0,0,0,7.1-3.6,7.77,7.77,0,0,0,1.65-1.4,42.94,42.94,0,0,0,10.31,7.26c1.41,3,1.6,4.95,1.36,6.17a3.68,3.68,0,0,1-1.94,2.6l-.13.07a7.58,7.58,0,0,0-2.78,2.92,2,2,0,0,1-1.34.86A18.43,18.43,0,0,0,87.87,56.36ZM31.86,70a13.21,13.21,0,0,1-3.57-25.93l.07,0c2.9,1.32,5.71,2.44,8.17,3.35l-1.79,2.87a6.92,6.92,0,0,0-2.88-.62,7.17,7.17,0,1,0,4.58,1.67l2-3.23c1.85.65,3.41,1.16,4.52,1.5,0,.05,0,.11.06.15A13.21,13.21,0,0,1,31.86,70Zm-.53-12.38a1,1,0,0,0,.53.15,1,1,0,0,0,.85-.47L35.36,53a5.14,5.14,0,1,1-3.5-1.39,5.2,5.2,0,0,1,1.81.34L31,56.26A1,1,0,0,0,31.33,57.63ZM45.65,27.34c3.44,1.35,7.43,2.88,8,3A47.84,47.84,0,0,0,64.93,32c4.11.2,5.81.28,7,3.23,1.29,3.86-2.91,5.79-3.47,6l0,0a13.74,13.74,0,0,1-7.42.89C49.56,40.45,30.16,31.32,23.68,28a2.52,2.52,0,0,1-1.35-1.48,2.77,2.77,0,0,1,.27-1.91C23.59,23.59,28,21.38,45.65,27.34ZM98.76,16.66a32.76,32.76,0,0,0-2.11-3.31C94.83,10.68,90.86,4.86,91,2.52c1.79,1.93,6.49,8,11.42,14.3a67.27,67.27,0,0,1,4.42,6.28A36.93,36.93,0,0,1,98.76,16.66Zm7.52,52.91A12,12,0,0,1,100,47.32l2.2,4.36a7.14,7.14,0,1,0,4.07-1.29,7,7,0,0,0-2.29.39l-2.21-4.37a12,12,0,1,1,4.5,23.16Zm.89-12.47-2.27-4.5a4.91,4.91,0,0,1,1.38-.21,5.22,5.22,0,1,1-3.16,1.11l2.27,4.5a1,1,0,0,0,.9.54,1,1,0,0,0,.44-.1A1,1,0,0,0,107.17,57.1Z"/><path class="cls-4" d="M103.84,39a18.43,18.43,0,0,0-16,17.36,37.4,37.4,0,0,0,.25,4.22.78.78,0,0,1-.16.66,1.45,1.45,0,0,1-1,.32l-28.56,0h0a3.34,3.34,0,0,1-2.59-1.23c-2.45-3-6.85-8.45-8.75-10.7a5.68,5.68,0,0,0-2.69-1.77C40.48,46.76,27.23,42.48,17.91,36c-1.07-1-1-1.16-.75-2a6.19,6.19,0,0,0,.25-3.47,15.12,15.12,0,0,0-1.21-3.37,10.13,10.13,0,0,1-.56-1.36,2.36,2.36,0,0,1,.41-.05l.65,0c1.58-.08,2.73-.16,3.58-.28A4.08,4.08,0,0,0,20.4,27a4.42,4.42,0,0,0,2.34,2.74l1.14.58c-2.26.2-5.22,1-3.38,4.21a6.77,6.77,0,0,0,2.77,2.56A128.79,128.79,0,0,0,44.1,45.77c4.4,1.08,8.12,6.34,11.52,10.37.56.83,1,1.51,1.43,2a3.46,3.46,0,0,0,2.77,1.37l22.89,0c1.48,0,2.83-.29,2.77-2.69-.11-4.91,2.58-15.49,14.65-19.7l2.05-.72A8.66,8.66,0,0,0,105,34.7c1.67-1.48,4-4,2.33-5.4-4.73-3.93-9-7.39-10.65-8.78a7.77,7.77,0,0,0,1.65-1.4,42.94,42.94,0,0,0,10.31,7.26c1.41,3,1.6,4.95,1.36,6.17a3.68,3.68,0,0,1-1.94,2.6l-.13.07a7.58,7.58,0,0,0-2.78,2.92A2,2,0,0,1,103.84,39ZM22.6,24.56a2.77,2.77,0,0,0-.27,1.91A2.52,2.52,0,0,0,23.68,28c6.48,3.37,25.88,12.5,37.37,14.2a13.74,13.74,0,0,0,7.42-.89l0,0c.56-.23,4.76-2.16,3.47-6-1.22-2.95-2.92-3-7-3.23a47.84,47.84,0,0,1-11.25-1.62c-.6-.15-4.59-1.68-8-3C28,21.38,23.59,23.59,22.6,24.56Zm84.28-1.46a67.27,67.27,0,0,0-4.42-6.28C97.53,10.48,92.83,4.45,91,2.52c-.18,2.34,3.79,8.16,5.61,10.83a32.76,32.76,0,0,1,2.11,3.31A36.93,36.93,0,0,0,106.88,23.1Zm-.15,35.34a1,1,0,0,1-.44.1,1,1,0,0,1-.9-.54l-2.27-4.5a5.14,5.14,0,1,0,3.16-1.11,4.91,4.91,0,0,0-1.38.21l2.27,4.5A1,1,0,0,1,106.73,58.44ZM33.67,52A5.15,5.15,0,1,0,37,56.8,5.13,5.13,0,0,0,35.36,53l-2.65,4.28a1,1,0,0,1-.85.47,1,1,0,0,1-.53-.15A1,1,0,0,1,31,56.26Z"/><path class="cls-4" d="M20.5,34.5a6.77,6.77,0,0,0,2.77,2.56A128.79,128.79,0,0,0,44.1,45.77c4.4,1.08,8.12,6.34,11.52,10.37.56.83,1,1.51,1.43,2a3.46,3.46,0,0,0,2.77,1.37l22.89,0c1.48,0,2.83-.29,2.77-2.69-.11-4.91,2.58-15.49,14.65-19.7l2.05-.72A8.66,8.66,0,0,0,105,34.7c1.67-1.48,4-4,2.33-5.4-4.73-3.93-9-7.39-10.65-8.78a50.54,50.54,0,0,1-7.1,3.6c-1.41.62-2.62,1.16-3.24,1.53a3.4,3.4,0,0,0-1.65,2.56,9.85,9.85,0,0,0,.8,5.31,6.31,6.31,0,0,1,.56,4c-.73,3.33-4,6.74-4.12,6.88a4,4,0,0,1-3.13,1.07c-.75,0-6.53.08-8.14,0a3,3,0,0,1-2.63-1.87,15.25,15.25,0,0,1-7.33.59c-11.13-1.65-29.37-10-36.85-13.83C21.62,30.49,18.66,31.33,20.5,34.5Z"/><path class="cls-5" d="M20.5,34.5a6.77,6.77,0,0,0,2.77,2.56A128.79,128.79,0,0,0,44.1,45.77c4.4,1.08,8.12,6.34,11.52,10.37.56.83,1,1.51,1.43,2a3.46,3.46,0,0,0,2.77,1.37l22.89,0c1.48,0,2.83-.29,2.77-2.69-.11-4.91,2.58-15.49,14.65-19.7l2.05-.72A8.66,8.66,0,0,0,105,34.7c1.67-1.48,4-4,2.33-5.4-4.73-3.93-9-7.39-10.65-8.78a50.54,50.54,0,0,1-7.1,3.6c-1.41.62-2.62,1.16-3.24,1.53a3.4,3.4,0,0,0-1.65,2.56,9.85,9.85,0,0,0,.8,5.31,6.31,6.31,0,0,1,.56,4c-.73,3.33-4,6.74-4.12,6.88a4,4,0,0,1-3.13,1.07c-.75,0-6.53.08-8.14,0a3,3,0,0,1-2.63-1.87,15.25,15.25,0,0,1-7.33.59c-11.13-1.65-29.37-10-36.85-13.83C21.62,30.49,18.66,31.33,20.5,34.5Z"/></svg>