<svg id="Layer_1" data-name="Layer 1" xmlns="http://www.w3.org/2000/svg" xmlns:xlink="http://www.w3.org/1999/xlink" viewBox="0 0 133 57"><defs><style>.cls-1{fill:url(#linear-gradient);}.cls-2{fill:url(#linear-gradient-2);}.cls-3{fill:url(#linear-gradient-3);}.cls-4{fill:none;}.cls-5{fill:#fff;}.cls-6{fill:url(#linear-gradient-4);}.cls-7{fill:url(#linear-gradient-5);}.cls-8{fill:#ed1c24;}</style><linearGradient id="linear-gradient" x1="24.37" y1="42.89" x2="52.23" y2="42.89" gradientUnits="userSpaceOnUse"><stop offset="0" stop-color="#606060"/><stop offset="1" stop-color="#1e1e1e"/></linearGradient><linearGradient id="linear-gradient-2" x1="86.45" y1="42.67" x2="114.52" y2="42.67" xlink:href="#linear-gradient"/><linearGradient id="linear-gradient-3" x1="45.84" y1="24.45" x2="60.98" y2="24.45" xlink:href="#linear-gradient"/><linearGradient id="linear-gradient-4" x1="81.33" y1="9.34" x2="81.33" y2="48.5" gradientUnits="userSpaceOnUse"><stop offset="0" stop-color="#fff" stop-opacity="0.5"/><stop offset="0.99" stop-color="#adadad"/></linearGradient><linearGradient id="linear-gradient-5" x1="60.94" y1="9.74" x2="60.94" y2="48.9" xlink:href="#linear-gradient-4"/></defs><path class="cls-1" d="M42,35.23A8.47,8.47,0,0,1,46.4,42.5a7.79,7.79,0,0,1-8.21,8.12c-4.81,0-8.19-3.13-8.19-8s3.49-8,8.3-8a8.43,8.43,0,0,1,2.62.1l1.81-3.94a17.7,17.7,0,0,0-5-.82A12.66,12.66,0,0,0,25.41,42.65c0,6.82,6,13.14,12.78,13.14s13-6.32,13-13.14c0-4.66-3.45-10.47-7.13-11.45Z"/><path class="cls-2" d="M100.44,29.79a15.65,15.65,0,0,0-4,.49l1,4a14.51,14.51,0,0,1,3,0,7.9,7.9,0,0,1,8.33,8.32c0,5-3.38,8.39-8.33,8.39A8,8,0,0,1,92,42.65a8.6,8.6,0,0,1,4.65-7.75l-1.52-4.08c-4.06,2-7.64,7-7.64,11.83a13.39,13.39,0,0,0,12.94,12.91c6.77,0,13-6.09,13-12.91S107.21,29.79,100.44,29.79Z"/><path class="cls-3" d="M60.41,24.44h-14l.1,0,0,0Z"/><path class="cls-4" d="M53.42,29.77h0c-.15-.19-.34-.36-.5-.54Z"/><path class="cls-5" d="M71,40.73a6.28,6.28,0,0,0,1.87-1.49L87.64,22.6a9.69,9.69,0,0,1,2-1.74,26,26,0,0,1,3.74-2,1,1,0,0,0,.4-.28L89.51,8.26a.16.16,0,0,0-.2-.08l-4.9,1.94a.19.19,0,0,0-.09.09.16.16,0,0,0,0,.12l2.3,6.38L69,37.35c0,.18,0,.36,0,.55,0,1.32-.08,2.39-.13,3.26A3.47,3.47,0,0,0,71,40.73Z"/><path class="cls-6" d="M71,40.73a6.28,6.28,0,0,0,1.87-1.49L87.64,22.6a9.69,9.69,0,0,1,2-1.74,26,26,0,0,1,3.74-2,1,1,0,0,0,.4-.28L89.51,8.26a.16.16,0,0,0-.2-.08l-4.9,1.94a.19.19,0,0,0-.09.09.16.16,0,0,0,0,.12l2.3,6.38L69,37.35c0,.18,0,.36,0,.55,0,1.32-.08,2.39-.13,3.26A3.47,3.47,0,0,0,71,40.73Z"/><path class="cls-5" d="M64.05,32.08a2.6,2.6,0,0,0-1.29-.32H54.88a20.08,20.08,0,0,1,3.2,10.89,19.44,19.44,0,0,1-.26,2.78,55.9,55.9,0,0,0,6.3,0A4.77,4.77,0,0,0,66.59,44a51.26,51.26,0,0,0,.4-6.12A6,6,0,0,0,64.05,32.08Z"/><path class="cls-7" d="M64.05,32.08a2.6,2.6,0,0,0-1.29-.32H54.88a20.08,20.08,0,0,1,3.2,10.89,19.44,19.44,0,0,1-.26,2.78,55.9,55.9,0,0,0,6.3,0A4.77,4.77,0,0,0,66.59,44a51.26,51.26,0,0,0,.4-6.12A6,6,0,0,0,64.05,32.08Z"/><path class="cls-4" d="M60.45,24.44H46.4l.1,0a19.26,19.26,0,0,1,1.85,1l.34.21c.45.29.88.58,1.31.9.2.15.4.3.59.46s.64.53.94.81.42.37.62.57.52.55.78.83l.49.54h0l0,0h4.9Z"/><path class="cls-4" d="M64.05,32.08a2.57,2.57,0,0,0-1.29-.32H54.88a20.08,20.08,0,0,1,3.2,10.89,19.44,19.44,0,0,1-.26,2.78c-.12.79-.26,1.55-.38,2.15,3.9.11,5.41.08,6.39-.21a3.61,3.61,0,0,0,2.66-2.9l.06-.25a1.76,1.76,0,0,0,0-.25,51.26,51.26,0,0,0,.4-6.12A6,6,0,0,0,64.05,32.08Z"/><path class="cls-4" d="M42.64,35.11a8.48,8.48,0,1,1-1.81-.83L42.29,31a12.15,12.15,0,0,0-4.1-.73,12.34,12.34,0,1,0,5.91,1.54Z"/><path class="cls-4" d="M40,36.12a6.46,6.46,0,0,0-1.82-.26,6.78,6.78,0,1,0,3.63,1.08L39.1,43.05a1,1,0,0,1-.91.59,1.14,1.14,0,0,1-.4-.08,1,1,0,0,1-.51-1.32Z"/><path class="cls-4" d="M61.13,20.32a5.09,5.09,0,0,0-5.08-5.08H39.52a5.09,5.09,0,0,0-5.08,5.08v2.12H61.13Z"/><path class="cls-4" d="M100.64,43.58a1,1,0,0,1-.35.06,1,1,0,0,1-.93-.64l-2.25-6a6.47,6.47,0,1,0,3.33-.93A6.08,6.08,0,0,0,99,36.3l2.27,6A1,1,0,0,1,100.64,43.58Z"/><path class="cls-4" d="M94.5,20.24l-.68-1.63L89.51,8.26a.16.16,0,0,0-.2-.08l-4.9,1.94a.19.19,0,0,0-.09.09.16.16,0,0,0,0,.12l2.3,6.38L69,37.35c0,.18,0,.36,0,.55,0,1.32-.08,2.39-.13,3.26,0,.61-.08,1.12-.11,1.55a3.87,3.87,0,0,0,3.41-.15,5.31,5.31,0,0,0,1.57-1.25L88.36,24.63a11.79,11.79,0,0,1,1.81-1.55l4.24-2.63A.17.17,0,0,0,94.5,20.24Z"/><path class="cls-4" d="M98.62,17.14h.83a.87.87,0,0,0,.86-.86v-7a.87.87,0,0,0-.86-.86h-.83a4.3,4.3,0,0,0-4.29,4.29v.13A4.3,4.3,0,0,0,98.62,17.14Z"/><path class="cls-4" d="M100.44,30.28a12,12,0,0,0-3.56.54L98.06,34a8.88,8.88,0,0,1,2.38-.33,9,9,0,1,1-4.22,1.06L95,31.56a12.22,12.22,0,1,0,5.4-1.28Z"/><path class="cls-8" d="M23.1,19.82a1.16,1.16,0,0,1,0-.18h-1a.4.4,0,0,0-.41.4v3a.41.41,0,0,0,.41.41h.94V19.82Z"/><path d="M100.44,28.3a14.33,14.33,0,0,0-4.27.65L94,23.07l1.31-.82a2.14,2.14,0,0,0,1.07-2.77l-.4-1a6.24,6.24,0,0,0,2.69.61h.83a2.85,2.85,0,0,0,2.85-2.84v-7a2.86,2.86,0,0,0-2.85-2.85h-.83a6.28,6.28,0,0,0-5.94,4.27L91.34,7.5a2.15,2.15,0,0,0-2.76-1.17l-1.46.58L85,1.86A3.06,3.06,0,0,0,82.16,0h-6a1,1,0,0,0,0,2h6a1.07,1.07,0,0,1,1,.65l2.12,5-1.59.63a2.17,2.17,0,0,0-1.19,1.17,2.14,2.14,0,0,0,0,1.61l1.89,5.24L68.58,34.76A7.57,7.57,0,0,0,65,30.35a4.56,4.56,0,0,0-2.27-.58H60.45L63,23.39l0-.1.13-.33a1,1,0,0,0,0-.75V20.32a7.08,7.08,0,0,0-7.07-7.07H39.52a7.08,7.08,0,0,0-7.07,7.07v2.12H25.09V19.82a1,1,0,0,0-1.95-.18,1.16,1.16,0,0,0,0,.18v3.63a1,1,0,0,0,1,1H30A20,20,0,0,0,18.3,42.65a1,1,0,0,0,2,0A17.87,17.87,0,0,1,44.6,25.82l-1.5,3.37a14.06,14.06,0,0,0-4.91-.89A14.3,14.3,0,1,0,44.91,30l1.49-3.35a17.52,17.52,0,0,1,3.37,2.25,18,18,0,0,1,6.32,13.75,28.26,28.26,0,0,1-.71,5A1.55,1.55,0,0,0,55.67,49a1.53,1.53,0,0,0,1.17.59c1.6.05,2.84.07,3.83.07a12.72,12.72,0,0,0,3.73-.35,5.57,5.57,0,0,0,4-4.5v0a5.94,5.94,0,0,0,1.79.3,6.21,6.21,0,0,0,2.8-.7,7.18,7.18,0,0,0,2.16-1.71L89.86,26a9.32,9.32,0,0,1,1.41-1.22l1-.59,2.1,5.56a14.22,14.22,0,1,0,6.11-1.4Zm-50,14.35A12.28,12.28,0,1,1,38.19,30.28a12.15,12.15,0,0,1,4.1.73l-1.46,3.27a8.85,8.85,0,1,0,1.81.83l1.46-3.29A12.39,12.39,0,0,1,50.47,42.65Zm-12.68.91a1.14,1.14,0,0,0,.4.08,1,1,0,0,0,.91-.59l2.72-6.11a6.72,6.72,0,1,1-3.63-1.08,6.46,6.46,0,0,1,1.82.26l-2.73,6.12A1,1,0,0,0,37.79,43.56ZM34.44,22.44V20.32a5.09,5.09,0,0,1,5.08-5.08H56.05a5.09,5.09,0,0,1,5.08,5.08v2.12Zm19,7.33h0l-.49-.54c-.26-.28-.51-.56-.78-.83s-.41-.38-.62-.57-.61-.55-.94-.81-.39-.31-.59-.46c-.43-.32-.86-.61-1.31-.9l-.34-.21a19.26,19.26,0,0,0-1.85-1l-.1,0H60.45l-2.1,5.35h-4.9ZM66.59,44a1.76,1.76,0,0,1,0,.25l-.06.25a3.61,3.61,0,0,1-2.66,2.9c-1,.29-2.49.32-6.39.21.12-.6.26-1.36.38-2.15a19.44,19.44,0,0,0,.26-2.78,20.08,20.08,0,0,0-3.2-10.89h7.88a2.57,2.57,0,0,1,1.29.32A6,6,0,0,1,67,37.85,51.26,51.26,0,0,1,66.59,44ZM94.33,12.72a4.3,4.3,0,0,1,4.29-4.29h.83a.87.87,0,0,1,.86.86v7a.87.87,0,0,1-.86.86h-.83a4.3,4.3,0,0,1-4.29-4.29ZM90.17,23.08a11.79,11.79,0,0,0-1.81,1.55L73.72,41.31a5.31,5.31,0,0,1-1.57,1.25,3.87,3.87,0,0,1-3.41.15c0-.43.07-.94.11-1.55.05-.87.09-1.94.13-3.26,0-.19,0-.37,0-.55L86.62,16.71l-2.3-6.38a.16.16,0,0,1,0-.12.19.19,0,0,1,.09-.09l4.9-1.94a.16.16,0,0,1,.2.08l4.31,10.35.68,1.63a.17.17,0,0,1-.09.21ZM100.44,55A12.37,12.37,0,0,1,95,31.56l1.18,3.12a9,9,0,1,0,4.22-1.06,8.88,8.88,0,0,0-2.38.33l-1.18-3.13a12,12,0,0,1,3.56-.54,12.37,12.37,0,0,1,0,24.73Zm.78-12.71L99,36.3a6.08,6.08,0,0,1,1.49-.18,6.5,6.5,0,1,1-3.33.93l2.25,6a1,1,0,0,0,.93.64,1,1,0,0,0,.35-.06A1,1,0,0,0,101.22,42.3Z"/><path class="cls-5" d="M61.13,22.44H34.44V20.32a5.09,5.09,0,0,1,5.08-5.08H56.05a5.09,5.09,0,0,1,5.08,5.08Zm-3.31,23c-.12.79-.26,1.55-.38,2.15,3.9.11,5.41.08,6.39-.21a3.61,3.61,0,0,0,2.66-2.9l.06-.25,0-.25a4.77,4.77,0,0,1-2.47,1.42A55.9,55.9,0,0,1,57.82,45.43Zm36.59-25-4.24,2.63a11.79,11.79,0,0,0-1.81,1.55L73.72,41.31a5.31,5.31,0,0,1-1.57,1.25,3.87,3.87,0,0,1-3.41.15c0-.43.07-.94.11-1.55A3.47,3.47,0,0,0,71,40.73a6.28,6.28,0,0,0,1.87-1.49L87.64,22.6a9.69,9.69,0,0,1,2-1.74,26,26,0,0,1,3.74-2,1,1,0,0,0,.4-.28l.68,1.63A.17.17,0,0,1,94.41,20.45ZM37.28,42.24a1,1,0,0,0,.51,1.32,1.14,1.14,0,0,0,.4.08,1,1,0,0,0,.91-.59l2.72-6.11a6.72,6.72,0,1,1-3.63-1.08,6.46,6.46,0,0,1,1.82.26Zm63.94.06L99,36.3a6.08,6.08,0,0,1,1.49-.18,6.5,6.5,0,1,1-3.33.93l2.25,6a1,1,0,0,0,.93.64,1,1,0,0,0,.35-.06A1,1,0,0,0,101.22,42.3ZM94.33,12.85v-.13a4.3,4.3,0,0,1,4.29-4.29h.83a.87.87,0,0,1,.86.86v7a.87.87,0,0,1-.86.86h-.83A4.3,4.3,0,0,1,94.33,12.85Zm-36,16.94h-4.9l0,0c-.15-.19-.34-.36-.5-.54s-.51-.56-.78-.83-.41-.38-.62-.57-.61-.55-.94-.81-.39-.31-.59-.46c-.43-.32-.86-.61-1.31-.9l-.34-.21a19.26,19.26,0,0,0-1.85-1l0,0h14Z"/></svg>