<svg id="Layer_1" data-name="Layer 1" xmlns="http://www.w3.org/2000/svg" xmlns:xlink="http://www.w3.org/1999/xlink" viewBox="0 0 133 73"><defs><style>.cls-1{fill:url(#linear-gradient);}.cls-2{fill:url(#linear-gradient-2);}.cls-3{fill:none;}.cls-4{fill:#ed1c24;}.cls-5{fill:url(#linear-gradient-3);}.cls-6{fill:url(#linear-gradient-4);}.cls-7{fill:#fff;}.cls-8{fill:url(#linear-gradient-5);}.cls-9{fill:url(#linear-gradient-6);}</style><linearGradient id="linear-gradient" x1="86.55" y1="54.15" x2="123.55" y2="54.15" gradientUnits="userSpaceOnUse"><stop offset="0" stop-color="#606060"/><stop offset="1" stop-color="#1e1e1e"/></linearGradient><linearGradient id="linear-gradient-2" x1="130.83" y1="-117.37" x2="167.55" y2="-117.37" gradientTransform="translate(-127.02 163.87) rotate(2.92)" xlink:href="#linear-gradient"/><linearGradient id="linear-gradient-3" x1="179.55" y1="-160.63" x2="179.55" y2="-113.1" gradientTransform="translate(-128.27 161.95) rotate(2.92)" gradientUnits="userSpaceOnUse"><stop offset="0" stop-color="#fff" stop-opacity="0.5"/><stop offset="0.99" stop-color="#adadad"/></linearGradient><linearGradient id="linear-gradient-4" x1="204.84" y1="-160.63" x2="204.84" y2="-113.1" xlink:href="#linear-gradient-3"/><linearGradient id="linear-gradient-5" x1="188.39" y1="-160.63" x2="188.39" y2="-113.1" xlink:href="#linear-gradient-3"/><linearGradient id="linear-gradient-6" x1="211.9" y1="-160.63" x2="211.9" y2="-113.1" xlink:href="#linear-gradient-3"/></defs><path class="cls-1" d="M122.51,54.44a17.59,17.59,0,0,0-17.39-17.82,23.48,23.48,0,0,0-4.69.82L103,44.13a12.08,12.08,0,0,1,2.16-.39c6.07,0,10.22,4.34,10.22,10.41s-4.15,10.37-10.22,10.37A9.93,9.93,0,0,1,94.78,54.15a10.68,10.68,0,0,1,7.1-9.94l-2.71-6.48c-6.34,2.4-11.58,9.22-11.58,16.4,0,9.25,8.27,17.55,17.53,17.55S122.51,63.69,122.51,54.44Z"/><path class="cls-2" d="M39.73,41.65S29.89,36.5,27.52,37c-4.09.78-8.16,1.45-11.27,4.25a17.4,17.4,0,0,0-5.58,11.88,17.86,17.86,0,0,0,4.2,12.65,17.87,17.87,0,0,0,12,5.81c9.24.46,17.92-7.06,18.39-16.3A20.89,20.89,0,0,0,44,48.66L37.9,51a14.06,14.06,0,0,1,.5,3.94,10.15,10.15,0,0,1-10.52,9.92c-.19,0-.5-.13-.69-.14a10.08,10.08,0,0,1-7.28-3.51,10.14,10.14,0,0,1-3-7.53c.15-2.94,1.58-5.11,3.77-7.08a10.3,10.3,0,0,1,7.79-2.45c2.94.15,5.41.9,7.38,3.09a11.87,11.87,0,0,1,1.81,2.71l6.06-2.26A21.81,21.81,0,0,0,39.73,41.65Z"/><path class="cls-3" d="M43.69,44.13A19.21,19.21,0,0,1,45,46.58l1.82-.72-.19-.33Z"/><path class="cls-3" d="M39.11,28.07,39,28l4.82,8.53.12.07,0,0Z"/><path class="cls-3" d="M54.53,55.38l-4.72-8.44-.11,0,4.79,8.48a2.52,2.52,0,0,0,1.72,1.06A2.57,2.57,0,0,1,54.53,55.38Z"/><path class="cls-4" d="M19.47,16.73a.41.41,0,0,0-.08.24v3.27a.44.44,0,0,0,.44.44h1.74a.44.44,0,0,0,.44-.44V18.65A3.91,3.91,0,0,1,19.47,16.73Z"/><path d="M123.89,54.13a18.79,18.79,0,0,0-18.77-18.78,18.38,18.38,0,0,0-4.66.61l-1.75-5,1.82-.6h0l.75-.25a25.75,25.75,0,0,1,11,.51.9.9,0,0,0,.28,0,1,1,0,0,0,.29-2A27.32,27.32,0,0,0,102,28a2.74,2.74,0,0,0-.09-.39l-1.59-4.86A6.8,6.8,0,0,0,104,23.83h.27l.82,0a3.06,3.06,0,0,0,2.94-3.17l-.3-7.63a3.06,3.06,0,0,0-3.17-2.94l-.82,0A6.86,6.86,0,0,0,99,12.28a7,7,0,0,0-1.36,2.19L96.15,9.9A2.24,2.24,0,0,0,95,8.61a2.18,2.18,0,0,0-1.68-.12l-1.82.59L89.83,3.22A4,4,0,0,0,86.22.37L79.09,0A1,1,0,1,0,79,2l7.12.36a2,2,0,0,1,1.8,1.42L89.64,9.7l-2.53.83a2.22,2.22,0,0,0-1.41,2.79l.16.48a19.48,19.48,0,0,0-17,1.41A41,41,0,0,0,63,19.57h0l-.11,0-.4.11c-2.82.74-10.3,2.73-17.76-.74-7.87-3.65-13.93-5.91-18-6.72A12.84,12.84,0,0,0,22.4,12a3.8,3.8,0,0,0-2.76,1.51,3.26,3.26,0,0,0-.42,2.59,3,3,0,0,0,.25.66A3.91,3.91,0,0,0,22,18.65c.4.11.77.19,1,.24l.22,0,1.28.26c2.47.47,5.27,1,7.74,3.33,1,.9,1.86,1.72,2.74,2.47l5.38,9.53L25.3,25.62a4.41,4.41,0,0,0-6.48,5,4.44,4.44,0,0,0,2.35,2.77l4.56,2.17A18.77,18.77,0,0,0,26.93,73l1,0A18.7,18.7,0,0,0,45.72,48.44l2.09-.83,5,8.81.07.12a4.52,4.52,0,0,0,3.46,1.91H72.5A3.16,3.16,0,0,0,75,57.31L93.75,32.52a2.35,2.35,0,0,0,.53-.09l2.53-.83,1.74,5a18.76,18.76,0,1,0,25.34,17.57ZM23.7,17l-.28-.05c-1-.19-2.05-.46-2.25-1.32a1.24,1.24,0,0,1,.13-1A2,2,0,0,1,22.68,14a5.57,5.57,0,0,1,.85-.06,14.52,14.52,0,0,1,2.74.32c3.93.78,9.84,3,17.56,6.57s15.47,1.82,18.73,1a21.26,21.26,0,0,0,1.51,6.35c-1.18.43-3.19,1.09-3.73,1.26a24.91,24.91,0,0,1-11.75.49c-6.41-1.55-9.92-4.07-14.93-8.78-2.9-2.71-6.13-3.34-8.74-3.83C24.5,17.14,24.09,17.07,23.7,17Zm63-.61L89.86,26,84.94,29a16.56,16.56,0,0,1-12.55.56l-6.25-2c-.37-.29-1.13-2.37-1.65-6.69a40.72,40.72,0,0,1,5.38-3.95A17.3,17.3,0,0,1,86.66,16.37Zm1.07-3.94,6.25-2h0a.25.25,0,0,1,.22.14L100,28.22a.21.21,0,0,1-.13.27l-2.8.91h0l-3.44,1.13c-.07,0-.15,0-.21-.08l-1.23-3.68h0l-1-3.13-3.58-11A.2.2,0,0,1,87.73,12.43Zm16.13-.35.82,0h0a1.07,1.07,0,0,1,.72.28,1,1,0,0,1,.34.74l.29,7.62a1.06,1.06,0,0,1-1,1.1l-.81,0a4.87,4.87,0,1,1-.38-9.74ZM27,54.81a1,1,0,0,0,.92.63.94.94,0,0,0,.37-.07L36.64,52a9.29,9.29,0,0,1,.25,2.64,9,9,0,1,1-18-.92,9,9,0,0,1,9-8.56l.47,0a9,9,0,0,1,6.24,3,9.12,9.12,0,0,1,1.36,2l-8.42,3.34A1,1,0,0,0,27,54.81Zm9.1-8a11,11,0,1,0-8.74,18.38l.57,0A11,11,0,0,0,38.5,51.3l5.37-2.12a16.76,16.76,0,1,1-16-11.74l.88,0c.36,0,.71.06,1.08.09l.24.09,9.48,4.52a16.67,16.67,0,0,1,3.61,5.15L37.8,49.43A11.1,11.1,0,0,0,36.06,46.84ZM20.74,30.09a2.41,2.41,0,0,1,3.55-2.75l26,15.33a5,5,0,0,0,2.19.68l7.59.44c.23,0,.39.06.45.47a.45.45,0,0,1-.1.36.41.41,0,0,1-.32.16l-9.18.34a3.17,3.17,0,0,1-1-.24L22,31.6A2.41,2.41,0,0,1,20.74,30.09Zm41.8,14.12a4,4,0,1,1,4,4A4,4,0,0,1,62.54,44.21ZM45,46.58a19.21,19.21,0,0,0-1.31-2.45l2.94,1.4.19.33Zm9.49,8.8L49.7,46.9l.11,0a5.49,5.49,0,0,0,1.11.17l1.32,0,7.95-.28a2.46,2.46,0,0,0,.84-.2A6,6,0,1,0,61,42a2.92,2.92,0,0,0-.76-.16l-7.59-.44A3.19,3.19,0,0,1,51.31,41l-3.52-2.08L44,36.62l-.12-.07L39,28l.08.05a26,26,0,0,0,4.23,2.19,32.43,32.43,0,0,0,4.78,1.52,19.22,19.22,0,0,0,2.52.43c.83.08,1.67.12,2.5.12a28.6,28.6,0,0,0,7.77-1.07,29.35,29.35,0,0,0,4.85-1.72h0l6,1.95a21.2,21.2,0,0,0,4.86,1c.52,0,1.05.07,1.57.07a17.1,17.1,0,0,0,7.72-1.78l4.57-2.84h0l.43,1.28,0,0L91.5,31a1.83,1.83,0,0,0,.14.32l.15.45L73.47,56a1.17,1.17,0,0,1-.93.41H56.21A2.52,2.52,0,0,1,54.49,55.38Zm50.63,15.53a16.77,16.77,0,0,1-5.91-32.47l1.91,5.44a11.18,11.18,0,1,0,1.92-.56l-1.92-5.47a16.48,16.48,0,0,1,4-.5,16.78,16.78,0,1,1,0,33.56Zm1.73-16.7-3.14-9a9.36,9.36,0,0,1,1.41-.12,9,9,0,1,1-3.34.65L105,54.87a1,1,0,0,0,.94.67,1,1,0,0,0,.33-.06A1,1,0,0,0,106.85,54.21Z"/><path class="cls-5" d="M60.94,31.27a25.5,25.5,0,0,0,4.84-1.72h0a29.35,29.35,0,0,1-4.85,1.72,28.6,28.6,0,0,1-7.77,1.07c-.83,0-1.67,0-2.5-.12a24.19,24.19,0,0,0,2.55.13A28.84,28.84,0,0,0,60.94,31.27Z"/><path class="cls-6" d="M86,30.79,90.5,28v0l-4.57,2.84a17.1,17.1,0,0,1-7.72,1.78c-.52,0-1,0-1.57-.07.54,0,1.08.07,1.61.07A17.22,17.22,0,0,0,86,30.79Z"/><path class="cls-7" d="M60,54.41l10.21,0c1.65.08,2-.7,3-2C77,47.62,87.87,33.25,90.91,29.23L90.5,28,86,30.79a17.22,17.22,0,0,1-7.72,1.77c-.53,0-1.07,0-1.61-.07a21.2,21.2,0,0,1-4.86-1l-6-1.95a25.5,25.5,0,0,1-4.84,1.72,28.84,28.84,0,0,1-7.75,1.07,24.19,24.19,0,0,1-2.55-.13,19.22,19.22,0,0,1-2.52-.43,32.43,32.43,0,0,1-4.78-1.52.77.77,0,0,0,.07.57l4.38,8L51.31,41a3.19,3.19,0,0,0,1.31.41l7.59.44A2.92,2.92,0,0,1,61,42,6,6,0,1,1,61,46.58a2.46,2.46,0,0,1-.84.2l-7.95.28,3.28,6C56.85,54.83,58.38,54.33,60,54.41Z"/><path class="cls-8" d="M60,54.41l10.21,0c1.65.08,2-.7,3-2C77,47.62,87.87,33.25,90.91,29.23L90.5,28,86,30.79a17.22,17.22,0,0,1-7.72,1.77c-.53,0-1.07,0-1.61-.07a21.2,21.2,0,0,1-4.86-1l-6-1.95a25.5,25.5,0,0,1-4.84,1.72,28.84,28.84,0,0,1-7.75,1.07,24.19,24.19,0,0,1-2.55-.13,19.22,19.22,0,0,1-2.52-.43,32.43,32.43,0,0,1-4.78-1.52.77.77,0,0,0,.07.57l4.38,8L51.31,41a3.19,3.19,0,0,0,1.31.41l7.59.44A2.92,2.92,0,0,1,61,42,6,6,0,1,1,61,46.58a2.46,2.46,0,0,1-.84.2l-7.95.28,3.28,6C56.85,54.83,58.38,54.33,60,54.41Z"/><path d="M90.91,29.23l0,0-.43-1.28h0v0Z"/><path class="cls-9" d="M90.91,29.23l0,0-.43-1.28h0v0Z"/><path class="cls-7" d="M62.54,44.21a4,4,0,1,1,4,4A4,4,0,0,1,62.54,44.21ZM56.21,56.44H72.54a1.17,1.17,0,0,0,.93-.41L91.79,31.79l-.15-.45A1.83,1.83,0,0,1,91.5,31l-.59-1.79c-3,4-13.88,18.39-17.68,23.21-1,1.3-1.39,2.08-3,2L60,54.41c-1.6-.08-3.13.42-4.46-1.33l-3.28-6-1.32,0a5.49,5.49,0,0,1-1.11-.17l4.72,8.44A2.57,2.57,0,0,0,56.21,56.44ZM43.41,30.83l4.38,8L44,36.62l0,0-4.84-8.52a26,26,0,0,0,4.23,2.19A.77.77,0,0,0,43.41,30.83Zm63.44,23.38-3.14-9a9.36,9.36,0,0,1,1.41-.12,9,9,0,1,1-3.34.65L105,54.87a1,1,0,0,0,.94.67,1,1,0,0,0,.33-.06A1,1,0,0,0,106.85,54.21ZM27,54.81a1,1,0,0,0,.92.63.94.94,0,0,0,.37-.07L36.64,52a9.29,9.29,0,0,1,.25,2.64,9,9,0,1,1-18-.92,9,9,0,0,1,9-8.56l.47,0a9,9,0,0,1,6.24,3,9.12,9.12,0,0,1,1.36,2l-8.42,3.34A1,1,0,0,0,27,54.81ZM91.18,23.64l-3.58-11a.2.2,0,0,1,.13-.26l6.25-2h0a.25.25,0,0,1,.22.14L100,28.22a.21.21,0,0,1-.13.27l-2.8.91h0l-3.44,1.13c-.07,0-.15,0-.21-.08l-1.23-3.68h0Zm8-6.5a4.87,4.87,0,0,1,4.68-5.06l.82,0h0a1.07,1.07,0,0,1,.72.28,1,1,0,0,1,.34.74l.29,7.62a1.06,1.06,0,0,1-1,1.1l-.81,0A4.87,4.87,0,0,1,99.18,17.14ZM33.66,21.06c-2.9-2.71-6.13-3.34-8.74-3.83-.42-.09-.83-.16-1.22-.25l-.28-.05c-1-.19-2.05-.46-2.25-1.32a1.24,1.24,0,0,1,.13-1A2,2,0,0,1,22.68,14a5.57,5.57,0,0,1,.85-.06,14.52,14.52,0,0,1,2.74.32c3.93.78,9.84,3,17.56,6.57s15.47,1.82,18.73,1a21.26,21.26,0,0,0,1.51,6.35c-1.18.43-3.19,1.09-3.73,1.26a24.91,24.91,0,0,1-11.75.49C42.18,28.29,38.67,25.77,33.66,21.06Zm30.83-.17a40.72,40.72,0,0,1,5.38-3.95,17.3,17.3,0,0,1,16.79-.57L89.86,26,84.94,29a16.56,16.56,0,0,1-12.55.56l-6.25-2C65.77,27.29,65,25.21,64.49,20.89ZM22,31.6a2.42,2.42,0,1,1,2.27-4.26l26,15.33a5,5,0,0,0,2.19.68l7.59.44c.23,0,.39.06.45.47a.45.45,0,0,1-.1.36.41.41,0,0,1-.32.16l-9.18.34a3.17,3.17,0,0,1-1-.24Z"/></svg>