<svg id="Layer_1" data-name="Layer 1" xmlns="http://www.w3.org/2000/svg" xmlns:xlink="http://www.w3.org/1999/xlink" viewBox="0 0 133 68"><defs><style>.cls-1{fill:url(#linear-gradient);}.cls-2{fill:url(#linear-gradient-2);}.cls-3{fill:url(#linear-gradient-3);}.cls-4{fill:none;}.cls-5{fill:#ed1c24;}.cls-6{fill:#fff;}.cls-7{fill:url(#linear-gradient-4);}</style><linearGradient id="linear-gradient" x1="90.68" y1="49.59" x2="127" y2="49.59" gradientUnits="userSpaceOnUse"><stop offset="0" stop-color="#606060"/><stop offset="1" stop-color="#1e1e1e"/></linearGradient><linearGradient id="linear-gradient-2" x1="11.06" y1="49.59" x2="47.26" y2="49.59" xlink:href="#linear-gradient"/><linearGradient id="linear-gradient-3" x1="6.79" y1="40.88" x2="47.31" y2="40.88" xlink:href="#linear-gradient"/><linearGradient id="linear-gradient-4" x1="62.16" y1="12.25" x2="62.16" y2="61.06" gradientTransform="translate(-0.08 0)" gradientUnits="userSpaceOnUse"><stop offset="0" stop-color="#fff" stop-opacity="0.5"/><stop offset="0.99" stop-color="#adadad"/></linearGradient></defs><path class="cls-1" d="M126,49.73c0-9.12-8.07-17.26-17.19-17.26a18.16,18.16,0,0,0-5,.62L106,40.52a12,12,0,0,1,2.82-.06c5.41,0,9.34,3.61,9.34,9a9,9,0,0,1-9.34,9.24c-5.4,0-9.06-3.84-9.06-9.24A9.51,9.51,0,0,1,105,40.85l-2.7-7.17c-5.8,2.57-10.53,9.06-10.53,15.8,0,9.11,7.94,17.23,17,17.23S126,58.84,126,49.73Z"/><path class="cls-2" d="M38.45,50.06a9.33,9.33,0,0,1-9.31,8.71,8.9,8.9,0,0,1-9.22-9.29c0-5.41,4.3-9.18,9.7-9.18a8.24,8.24,0,0,1,3-2c1.55-.36,2.57-.42,3.86.52l2,1.18,2.37-2.64a18.12,18.12,0,0,0-11.68-4.85,17.41,17.41,0,0,0-17,17c0,9.11,7.78,17.23,16.89,17.23,8,0,15.39-6.5,16.91-14.06Z"/><path class="cls-3" d="M44.63,43.5a23.74,23.74,0,0,0-2.93-5.24l-1.93,2.62Z"/><path class="cls-4" d="M47,44.68l1.4.87A10.54,10.54,0,0,0,52.08,47L47.51,32.93l-4.38,4.43A18.62,18.62,0,0,1,47,44.68Z"/><path d="M127.3,49.48A18.55,18.55,0,0,0,108.77,31a18.28,18.28,0,0,0-5.46.83L102,28.05c3.56-1.14,7.73-1.77,11.38-.92l.25.06a2.82,2.82,0,0,0,3.58-1.32l2-3.31a4.16,4.16,0,0,0,.82-3.19c-1.24-8.51-11.52-15.9-15.88-18.68a4,4,0,0,0-4.56.07L96.07,3.69a2.48,2.48,0,0,0-.34,3.64l2.56,2.8a2.82,2.82,0,0,1,.64,2.69l-1.49,5.31-6.67-5.66A13.44,13.44,0,0,0,86.54,10c-4.3-1.5-12.21-3.68-16.91-1.44S63,16,62.29,18.85c-.07.26-.13.51-.17.74L45,13.55a3.38,3.38,0,0,1-1.89-1.7L40.71,7.91a4.85,4.85,0,0,0-3.29-2.56L15.2,3.2a1.62,1.62,0,0,0-1.68,2.16v0l2,5.48c0,.1.1.2.14.3a5.75,5.75,0,0,0,2.51,2.77l2.38,1.48L10.76,20a5.19,5.19,0,0,0-2.5,2.48L5.8,27.67A1,1,0,0,0,6.27,29a1.11,1.11,0,0,0,.43.09,1,1,0,0,0,.9-.57l2.47-5.2A3.14,3.14,0,0,1,11.6,21.8l11-5.14L46.3,31.31l-4.56,4.62a18.51,18.51,0,1,0,5.5,17.47l1,.37a7.26,7.26,0,0,0,2.34.38A7.1,7.1,0,0,0,52.16,54l2.09-.32L55.7,58.1a3.14,3.14,0,0,0,2.87,2.17l24.12,0A3.15,3.15,0,0,0,86,56.68c-.53-3.9-1.4-17.3,9.83-25.89L97.25,30a27.72,27.72,0,0,1,2.87-1.32l1.32,3.75a18.52,18.52,0,1,0,25.86,17ZM84,57a1.14,1.14,0,0,1-.29.94,1.22,1.22,0,0,1-1,.37l-24.12,0a1.16,1.16,0,0,1-1-.8l-1.34-4.12,2-.3L66,51.87h0a5.6,5.6,0,0,0,1.35,1.4,5.53,5.53,0,0,0,3.2,1,6.09,6.09,0,0,0,1-.08,5.58,5.58,0,0,0,4.29-7.41,5.55,5.55,0,0,0-10.68.91l-8.67-.41-2.18-.1L49.29,32a4,4,0,0,0-1.93-2.33L19.21,12.2a3.78,3.78,0,0,1-1.77-2L15.6,5.24,37,7.31A2.9,2.9,0,0,1,39,8.87L39.62,10l1.71,2.85a5.3,5.3,0,0,0,3,2.62l17.46,6.13h0l14.2,5a3.15,3.15,0,0,0,1.29.27c.13,0,.27,0,.4,0a5.08,5.08,0,0,0,1.44-.22l1-.31c2.28-.7,12.17-3.66,16.31-4.9-.27,1-.8,3-1.26,4.84l-.3,1.06s-.27,1.12-.41,1.73a1.12,1.12,0,0,1-.39.59C82.57,38.9,83.47,52.85,84,57ZM48.94,51.88,32.53,46.13a3.51,3.51,0,0,1,.4-6.73,3.46,3.46,0,0,1,.78-.09,3.63,3.63,0,0,1,2.13.71l11.52,7.22a12.11,12.11,0,0,0,5,1.83c.3,0,.57,0,.73.06l12,.57c0,.09.06.18.08.28L51.79,52A5.31,5.31,0,0,1,48.94,51.88ZM29.15,66A16.53,16.53,0,1,1,40.34,37.35l-1.92,1.94L37,38.37a5.5,5.5,0,0,0-7.76,1.31h0a9.8,9.8,0,1,0,9.75,10.8l6.45,2.26A16.56,16.56,0,0,1,29.15,66ZM67,49.32a3.55,3.55,0,0,1,2.91-4.12,4.3,4.3,0,0,1,.61-.05,3.57,3.57,0,0,1,3.51,3,3.57,3.57,0,0,1-2.92,4.11A3.55,3.55,0,0,1,67,49.32Zm-38,.87a1,1,0,0,0,.7.28,1,1,0,0,0,.71-.29l1.95-2,4.53,1.59a7.8,7.8,0,1,1-8.62-8.07,5.5,5.5,0,0,0,.25,3.08,5.44,5.44,0,0,0,1.94,2.49L29,48.78A1,1,0,0,0,29.05,50.19ZM47.51,32.93,52.08,47a10.54,10.54,0,0,1-3.66-1.45L47,44.68a18.62,18.62,0,0,0-3.89-7.32ZM44.35,43l-4.2-2.64,1.57-1.59A16.32,16.32,0,0,1,44.35,43ZM85.88,11.93A11.24,11.24,0,0,1,89.48,14l6.39,5.42c-3.85,1.16-12.81,3.92-16.33,5l-.23.07a6.81,6.81,0,0,1-2,.36,3.88,3.88,0,0,1-.66-.14L64,20.24c0-.26.12-.57.2-.9.64-2.52,2.3-7,6.27-8.94C74.7,8.4,82.65,10.8,85.88,11.93Zm11.2,14.85,3.77-13.42a4.83,4.83,0,0,0-1.09-4.58L97.21,6h0a.42.42,0,0,1-.12-.36.48.48,0,0,1,.22-.36l3.54-2.94a1.65,1.65,0,0,1,1-.33,2.32,2.32,0,0,1,1.23.38c3.23,2.05,13.84,9.37,15,17.29.08.58.06.87-.55,1.86l-2,3.29c-.44.69-.57.66-1.41.45l-.28-.07c-7.19-1.68-14.76,1.7-17.07,2.86C96.86,27.65,97,27.22,97.08,26.78Zm-4.83,22.7a16.56,16.56,0,0,1,9.86-15.12l2.25,6.38a9.78,9.78,0,1,0,4.41-1.06,9.67,9.67,0,0,0-2.54.35L104,33.66A16.53,16.53,0,1,1,92.25,49.48Zm17.47.41-2.83-8a7.77,7.77,0,1,1-1.86.72l2.8,7.92a1,1,0,0,0,.94.67,1,1,0,0,0,.34-.06A1,1,0,0,0,109.72,49.89Z"/><path class="cls-5" d="M13.53,5.38v0l-1.47.4a.68.68,0,0,0-.47.82l1.67,4.73a.66.66,0,0,0,.82.47l1.3-.39a.67.67,0,0,0,.34-.23c0-.1-.1-.2-.14-.3Z"/><path class="cls-6" d="M62.1,56.22H79a2.27,2.27,0,0,0,2.27-2.29c-.09-6,1.49-18.66,11.37-25.18l2.23-1.42.3-1.06c.46-1.81,1-3.83,1.26-4.84-4.14,1.24-14,4.2-16.31,4.9l-1,.31a5.08,5.08,0,0,1-1.44.22c-.13,0-.27,0-.4,0A3.15,3.15,0,0,1,76,26.55l-14.2-5h0L44.31,15.43a5.3,5.3,0,0,1-3-2.62L39.62,10h-6l-5.06,3.13c-.94.94-1.14,1.53.07,2.28C35,19.37,43,24.46,48.81,28.29c1.81,1.19,2.12,1.95,2.87,3.89l4.74,15.11,8.67.41a5.55,5.55,0,1,1,6.39,6.5,6.09,6.09,0,0,1-1,.08,5.53,5.53,0,0,1-3.2-1A5.6,5.6,0,0,1,66,51.86h0l-7.72,1.19.19.62A3.73,3.73,0,0,0,62.1,56.22Z"/><path class="cls-7" d="M62.1,56.22H79a2.27,2.27,0,0,0,2.27-2.29c-.09-6,1.49-18.66,11.37-25.18l2.23-1.42.3-1.06c.46-1.81,1-3.83,1.26-4.84-4.14,1.24-14,4.2-16.31,4.9l-1,.31a5.08,5.08,0,0,1-1.44.22c-.13,0-.27,0-.4,0A3.15,3.15,0,0,1,76,26.55l-14.2-5h0L44.31,15.43a5.3,5.3,0,0,1-3-2.62L39.62,10h-6l-5.06,3.13c-.94.94-1.14,1.53.07,2.28C35,19.37,43,24.46,48.81,28.29c1.81,1.19,2.12,1.95,2.87,3.89l4.74,15.11,8.67.41a5.55,5.55,0,1,1,6.39,6.5,6.09,6.09,0,0,1-1,.08,5.53,5.53,0,0,1-3.2-1A5.6,5.6,0,0,1,66,51.86h0l-7.72,1.19.19.62A3.73,3.73,0,0,0,62.1,56.22Z"/><path class="cls-6" d="M51.68,32.18l4.74,15.11-2.18-.1L49.29,32a4,4,0,0,0-1.93-2.33L19.21,12.2a3.78,3.78,0,0,1-1.77-2L15.6,5.24,37,7.31A2.9,2.9,0,0,1,39,8.87L39.62,10h-6l-5.06,3.13c-.94.94-1.14,1.53.07,2.28C35,19.37,43,24.46,48.81,28.29,50.62,29.48,50.93,30.24,51.68,32.18Zm42.91-3.7c0-.18,0-.27.08-.4l.18-.75-2.23,1.42C82.74,35.27,81.16,48,81.25,53.93A2.27,2.27,0,0,1,79,56.22H62.1a3.73,3.73,0,0,1-3.68-2.54l-.19-.62-2,.3,1.34,4.12a1.16,1.16,0,0,0,1,.8l24.12,0a1.22,1.22,0,0,0,1-.37A1.14,1.14,0,0,0,84,57c-.56-4.14-1.47-18.28,10.32-27.53C94.4,29.19,94.49,28.87,94.59,28.48Zm14.52,22.68a1,1,0,0,1-.34.06,1,1,0,0,1-.94-.67L105,42.63a8,8,0,1,0,1.86-.72l2.83,8A1,1,0,0,1,109.11,51.16Zm-78.6-3.87a5.44,5.44,0,0,1-1.94-2.49,5.5,5.5,0,0,1-.25-3.08,7.8,7.8,0,1,0,8.62,8.07L32.41,48.2l-1.95,2a1,1,0,0,1-.71.29,1,1,0,0,1-.7-.28,1,1,0,0,1,0-1.41Zm83.31-22.1.28.07c.84.21,1,.24,1.41-.45l2-3.29c.61-1,.63-1.28.55-1.86-1.15-7.92-11.76-15.24-15-17.29A2.32,2.32,0,0,0,101.86,2a1.65,1.65,0,0,0-1,.33L97.31,5.26a.48.48,0,0,0-.22.36.42.42,0,0,0,.12.36h0l2.55,2.8a4.83,4.83,0,0,1,1.09,4.58L97.08,26.78c-.11.44-.22.87-.33,1.27C99.06,26.89,106.63,23.51,113.82,25.19Zm-49.6-5.85c-.08.33-.15.64-.2.9L76.7,24.7a3.88,3.88,0,0,0,.66.14,6.81,6.81,0,0,0,2-.36l.23-.07c3.52-1.08,12.48-3.84,16.33-5L89.48,14a11.24,11.24,0,0,0-3.6-2.06C82.65,10.8,74.7,8.4,70.49,10.4,66.52,12.3,64.86,16.82,64.22,19.34ZM65.15,50c0-.1-.06-.19-.08-.28l-12-.57c-.16,0-.43,0-.73-.06a12.11,12.11,0,0,1-5-1.83L35.84,40a3.63,3.63,0,0,0-2.13-.71,3.46,3.46,0,0,0-.78.09,3.5,3.5,0,0,0-2.31,1.76,3.5,3.5,0,0,0,1.91,5l16.41,5.75a5.31,5.31,0,0,0,2.85.15Z"/><path class="cls-6" d="M68.48,51.63a3.58,3.58,0,0,0,5-.85,3.5,3.5,0,0,0,.61-2.66,3.57,3.57,0,0,0-3.51-3,4.3,4.3,0,0,0-.61.05A3.55,3.55,0,0,0,67,49.32,3.52,3.52,0,0,0,68.48,51.63Z"/></svg>