<svg id="Layer_1" data-name="Layer 1" xmlns="http://www.w3.org/2000/svg" xmlns:xlink="http://www.w3.org/1999/xlink" viewBox="0 0 133 64"><defs><style>.cls-1{fill:url(#linear-gradient);}.cls-2{fill:url(#linear-gradient-2);}.cls-3{fill:none;}.cls-4{fill:#ed1c24;}.cls-5{fill:#fff;}.cls-6{fill:url(#linear-gradient-3);}.cls-7{fill:url(#linear-gradient-4);}.cls-8{fill:url(#linear-gradient-5);}.cls-9{fill:url(#linear-gradient-6);}.cls-10{fill:url(#linear-gradient-7);}.cls-11{fill:url(#linear-gradient-8);}</style><linearGradient id="linear-gradient" x1="9.33" y1="47.64" x2="41.17" y2="47.64" gradientUnits="userSpaceOnUse"><stop offset="0" stop-color="#606060"/><stop offset="1" stop-color="#1e1e1e"/></linearGradient><linearGradient id="linear-gradient-2" x1="91.73" y1="47.59" x2="123.69" y2="47.59" xlink:href="#linear-gradient"/><linearGradient id="linear-gradient-3" x1="66.97" y1="6.17" x2="66.97" y2="54.6" gradientUnits="userSpaceOnUse"><stop offset="0" stop-color="#fff" stop-opacity="0.5"/><stop offset="0.99" stop-color="#adadad"/></linearGradient><linearGradient id="linear-gradient-4" x1="55.32" y1="6.17" x2="55.32" y2="54.6" xlink:href="#linear-gradient-3"/><linearGradient id="linear-gradient-5" x1="65.55" y1="6.17" x2="65.55" y2="54.6" xlink:href="#linear-gradient-3"/><linearGradient id="linear-gradient-6" x1="50.48" y1="6.17" x2="50.48" y2="54.6" xlink:href="#linear-gradient-3"/><linearGradient id="linear-gradient-7" x1="84.83" y1="6.17" x2="84.83" y2="54.6" xlink:href="#linear-gradient-3"/><linearGradient id="linear-gradient-8" x1="47.87" y1="6.17" x2="47.87" y2="54.6" xlink:href="#linear-gradient-3"/></defs><path class="cls-1" d="M32.36,44.84a8.68,8.68,0,0,1,.76,2.8c0,4.58-3.29,7.65-7.87,7.65s-7.75-3.07-7.75-7.65S20.72,40,25.29,40a8.07,8.07,0,0,1,6.9,3.54l2.67-1.72-3.05-1.6a3.78,3.78,0,0,1-2.39-3,7.48,7.48,0,0,1,.16-4,23.24,23.24,0,0,0-4.29-.55c-7.92,0-14.92,6.71-14.92,14.64s6.77,15.23,14.69,15.23,15-6.44,15-14.36a26.47,26.47,0,0,0,0-4L36.6,42.56Z"/><path class="cls-2" d="M122.64,47.63a15.35,15.35,0,0,0-14.93-14.92,17.6,17.6,0,0,0-5.2,1c.82,2,1.8,4.71,2.5,6.42a10.91,10.91,0,0,1,2.7-.27,7.43,7.43,0,0,1,7.8,7.74,7.46,7.46,0,0,1-7.8,7.77c-4.58,0-7.65-3.19-7.65-7.77A8.05,8.05,0,0,1,104,40.54c-.7-1.72-1.75-4.23-2.57-6.26-4.66,2.38-8.64,7.77-8.64,13.35a14.94,14.94,0,0,0,29.87,0Z"/><path class="cls-3" d="M47.25,39.77c-.25-.52-.54-1-.84-1.57l-1.27.64.22.23A12.6,12.6,0,0,0,47.25,39.77Z"/><path class="cls-4" d="M13.59,17.41l-.54,1a1,1,0,0,0,.3,1.3,42.2,42.2,0,0,0,4.76,2.47.83.83,0,0,0,1.12-.59l.48-.75a34.58,34.58,0,0,1-5.14-2.53A6.3,6.3,0,0,1,13.59,17.41Z"/><path d="M124.08,47.63a16.34,16.34,0,0,0-21.8-15.43c-.5-1.23-1-2.48-1.52-3.74h0l-.18-.45c-.8-2-1.62-4-2.41-5.94l3.17,1.54a1.8,1.8,0,0,0,.8.18,2.07,2.07,0,0,0,.8-.16c.93-.39,1.64-1.37,2.2-3a2.34,2.34,0,0,0,.12-.63c.28-4.18-2.7-8.26-4.51-10.32a3,3,0,0,0-4.25-.28l-2.56,2.24c-1.11-2.77-2-5-2.57-6.42A4.93,4.93,0,0,0,88.9,2.59L83.07.08a1,1,0,0,0-1.31.53,1,1,0,0,0,.52,1.31l5.78,2.49a2.92,2.92,0,0,1,1.45,1.53c.73,1.85,2.09,5.24,3.73,9.31l.11.3a26.41,26.41,0,0,0-3.81-2.33c-.51-.28-12.61-6.71-24.67-1.6a7.46,7.46,0,0,0-4.3,5.23,2.2,2.2,0,0,1-.54.78l-.28.2a19.31,19.31,0,0,1-6.56,2.37c-3.42.71-9.66-.8-12.18-1.49a37.79,37.79,0,0,1-5.38-3.4,8,8,0,0,0-5.09-1.73c-2.79,0-5.53-.06-10.62-.29-4.26-.19-6.48.41-7,1.88a2.17,2.17,0,0,0,.66,2.24,6.3,6.3,0,0,0,1,.86,34.58,34.58,0,0,0,5.14,2.53c.44.19.91.38,1.42.58a30.72,30.72,0,0,0,3.56,1,24.88,24.88,0,0,1,9.41,3.72c.63.45,1.26.85,1.9,1.22l.86.61a32.62,32.62,0,0,1,8.49,8.58l-1.66.84L38.41,31.8a5.63,5.63,0,0,0-8.21.07,19.24,19.24,0,0,0-4.91-.61A16.37,16.37,0,1,0,41.67,47.63a19.24,19.24,0,0,0-.14-2.15l1.45.71a7.39,7.39,0,0,0,3.05.65,6.73,6.73,0,0,0,.89-.05l2.8-.42c.12.45.24.89.34,1.28.15.56.28,1.05.41,1.48a5.13,5.13,0,0,0,4.89,3.45c1.69.06,4.46.07,7.51.07l7.59,0c3,0,5.49,0,6.58,0,4.79.09,6.12-2.61,7.18-4.78l.16-.32c4.47-8.84,8.08-13.39,9.08-14.58,0,0,0,0,0,0a12.13,12.13,0,0,0,5.24-2.16l.62-.46,1.1,2.7a16.36,16.36,0,1,0,23.64,14.65ZM98.32,28.54l-.8.6A10.46,10.46,0,0,1,92.77,31a10.43,10.43,0,0,1-7.54-1.09c-2.51-1.26-14.41-7.14-20.64-10.22L62,18.38a4.64,4.64,0,0,0,.46-.89l0-.14a5.43,5.43,0,0,1,3.14-3.88c11.16-4.74,22.82,1.45,23,1.52,4.07,2.1,5.29,3.68,5.81,4.36l1,1.32,3.13,7.58ZM82.42,47c-1,2.08-1.82,3.74-5.35,3.66-1.1,0-3.62,0-6.62,0-5.34,0-12,0-15-.05a3.18,3.18,0,0,1-3-2c-.12-.41-.25-.89-.39-1.42-.09-.33-.19-.69-.29-1.07l2.59-.39,6.22-.93.23-.08,8.75-.38a5,5,0,1,0-.69-2.5,4.78,4.78,0,0,0,.06.53l-8,.34-8.29-1.75-2.82-.6a32,32,0,0,0-7.36-10.47l.81.2c1,.24,2,.43,3,.58l0-.05c1.17.17,2.34.3,3.49.41h.08c.23,0,.47,0,.69,0h.17c.45,0,.88.06,1.33.06.8,0,1.62,0,2.45-.11.65-.05,1.31-.12,2-.21l.25,0a58.88,58.88,0,0,0,16.09-4.83l1.88.93c3.89,1.92,7.47,3.7,9.19,4.56l.61.3c.57.29,1.1.52,1.61.72a13.36,13.36,0,0,0,1.83.56,9.6,9.6,0,0,0,1.23.21,12.16,12.16,0,0,0,1.63.11,90.54,90.54,0,0,0-8,13.32ZM43.83,44.37,32.74,39a3.63,3.63,0,0,1-1.35-5.39,3.65,3.65,0,0,1,2.7-1.5h.25A3.62,3.62,0,0,1,37,33.18L44,40.57l.23.18a14.68,14.68,0,0,0,4,1.29l7,1.48-8.58,1.29A5.33,5.33,0,0,1,43.83,44.37Zm-4.17,3.26A14.37,14.37,0,1,1,25.29,33.26a18.52,18.52,0,0,1,3.8.38,5.63,5.63,0,0,0,2.77,7.11L34.37,42l-2.16,1.07a8.29,8.29,0,1,0,.9,1.8l3.53-1.76,2.71,1.32A16.88,16.88,0,0,1,39.66,47.63Zm-15.26.45a1,1,0,0,0,.9.55.87.87,0,0,0,.44-.11l5.56-2.77a6.11,6.11,0,0,1,.29,1.88A6.32,6.32,0,1,1,30.4,44l-5.55,2.77A1,1,0,0,0,24.4,48.08Zm46.42-6.29a3.05,3.05,0,1,1,3.05,3.05A3,3,0,0,1,70.82,41.79Zm-55.95-26c.25-.17,1.3-.68,5-.52,5.13.23,7.89.33,10.73.29a6,6,0,0,1,3.87,1.33c1.11.79,4.8,3.4,6,3.74,3.31.89,9.41,2.28,13.12,1.51a24.62,24.62,0,0,0,6.79-2.36l9.89,5c-3.89,1.6-13.21,4.85-20.39,4.17-4.81-.45-9.9-1.17-14.63-4.54a27,27,0,0,0-10.11-4,30.17,30.17,0,0,1-3.31-.9,39.31,39.31,0,0,1-6.14-2.89h0A2.68,2.68,0,0,1,14.87,15.81Zm80-2a.37.37,0,0,1,.11-.42l2.84-2.49a1,1,0,0,1,.66-.25,1,1,0,0,1,.76.35c1.61,1.82,4.26,5.39,4,8.85a1.11,1.11,0,0,1,0,.13c-.5,1.47-1,1.8-1,1.83L96.85,19.2a.34.34,0,0,1-.2-.22ZM46.41,38.2c.3.53.59,1,.84,1.57a12.6,12.6,0,0,1-1.89-.7l-.22-.23ZM107.71,62a14.36,14.36,0,0,1-6.52-27.16c.83,2,1.6,3.93,2.3,5.65a8.28,8.28,0,1,0,4.22-1.16,8.11,8.11,0,0,0-2.38.35c-.7-1.71-1.47-3.61-2.29-5.63a14.36,14.36,0,1,1,4.67,28Zm.92-14.21-2.54-6.24a6.21,6.21,0,0,1,1.62-.22,6.3,6.3,0,1,1-3.45,1c1.49,3.67,2.48,6.1,2.52,6.19a1,1,0,0,0,.93.62,1,1,0,0,0,.37-.07A1,1,0,0,0,108.63,47.79Z"/><path class="cls-5" d="M57.39,48.46l19.68,0a3.31,3.31,0,0,0,2.85-1.85C82,42.76,85.25,37.14,87.77,33a13.36,13.36,0,0,1-1.83-.56,17.78,17.78,0,0,1-2.21-1h0c-1.72-.86-5.3-2.64-9.19-4.56L72.61,26a57.4,57.4,0,0,1-16,4.77l-.25,0-.7.1c-.07,0-.53.06-1.27.11s-1.65.11-2.45.11c-.45,0-.88,0-1.33-.06h-.17c-.22,0-.46,0-.69,0h-.08c-1.06-.07-2.22-.18-3.45-.36a33.4,33.4,0,0,1,6.38,10.29l8.29,1.75,8-.34a4.78,4.78,0,0,1-.06-.53,5.13,5.13,0,1,1,.69,2.5l-8.75.38-.23.08-6.22.93c.12.36.23.69.34,1.06C55.06,48.15,55.94,48.46,57.39,48.46Z"/><path class="cls-6" d="M57.39,48.46l19.68,0a3.31,3.31,0,0,0,2.85-1.85C82,42.76,85.25,37.14,87.77,33a13.36,13.36,0,0,1-1.83-.56,17.78,17.78,0,0,1-2.21-1h0c-1.72-.86-5.3-2.64-9.19-4.56L72.61,26a57.4,57.4,0,0,1-16,4.77l-.25,0-.7.1c-.07,0-.53.06-1.27.11s-1.65.11-2.45.11c-.45,0-.88,0-1.33-.06h-.17c-.22,0-.46,0-.69,0h-.08c-1.06-.07-2.22-.18-3.45-.36a33.4,33.4,0,0,1,6.38,10.29l8.29,1.75,8-.34a4.78,4.78,0,0,1-.06-.53,5.13,5.13,0,1,1,.69,2.5l-8.75.38-.23.08-6.22.93c.12.36.23.69.34,1.06C55.06,48.15,55.94,48.46,57.39,48.46Z"/><path d="M56.31,30.77c-.66.09-1.32.16-2,.21.74-.05,1.2-.1,1.27-.11Z"/><path class="cls-7" d="M56.31,30.77c-.66.09-1.32.16-2,.21.74-.05,1.2-.1,1.27-.11Z"/><path d="M74.53,26.84l-1.88-.93a58.88,58.88,0,0,1-16.09,4.83,57.4,57.4,0,0,0,16-4.77Z"/><path class="cls-8" d="M74.53,26.84l-1.88-.93a58.88,58.88,0,0,1-16.09,4.83,57.4,57.4,0,0,0,16-4.77Z"/><path d="M50.39,31h0Z"/><path class="cls-9" d="M50.39,31h0Z"/><path d="M85.94,32.42c-.51-.2-1-.43-1.61-.72l-.61-.3h0A17.78,17.78,0,0,0,85.94,32.42Z"/><path class="cls-10" d="M85.94,32.42c-.51-.2-1-.43-1.61-.72l-.61-.3h0A17.78,17.78,0,0,0,85.94,32.42Z"/><path d="M46.13,30.57l0,.05c1.23.18,2.39.29,3.45.36C48.47,30.87,47.3,30.74,46.13,30.57Z"/><path class="cls-11" d="M46.13,30.57l0,.05c1.23.18,2.39.29,3.45.36C48.47,30.87,47.3,30.74,46.13,30.57Z"/><path class="cls-5" d="M90.63,33.3a90.54,90.54,0,0,0-8,13.32l-.17.34c-1,2.08-1.82,3.74-5.35,3.66-1.1,0-3.62,0-6.62,0-5.34,0-12,0-15-.05a3.18,3.18,0,0,1-3-2c-.12-.41-.25-.89-.39-1.42-.09-.33-.19-.69-.29-1.07l2.59-.39c.12.36.23.69.34,1.06.42,1.41,1.3,1.72,2.75,1.72l19.68,0a3.31,3.31,0,0,0,2.85-1.85C82,42.76,85.25,37.14,87.77,33a9.6,9.6,0,0,0,1.23.21A12.16,12.16,0,0,0,90.63,33.3ZM43.18,30l-.81-.2a32,32,0,0,1,7.36,10.47l2.82.6a33.4,33.4,0,0,0-6.38-10.29C45.21,30.47,44.21,30.28,43.18,30ZM24.85,46.73,30.4,44a6.29,6.29,0,1,0,1.19,3.67,6.11,6.11,0,0,0-.29-1.88l-5.56,2.77a.87.87,0,0,1-.44.11,1,1,0,0,1-.45-1.9Zm83.23,2.37a1,1,0,0,1-.37.07,1,1,0,0,1-.93-.62c0-.09-1-2.52-2.52-6.19a6.29,6.29,0,1,0,3.45-1,6.21,6.21,0,0,0-1.62.22l2.54,6.24A1,1,0,0,1,108.08,49.1ZM94.42,19.35c-.52-.68-1.74-2.26-5.81-4.36-.14-.07-11.8-6.26-23-1.52a5.43,5.43,0,0,0-3.14,3.88l0,.14a4.64,4.64,0,0,1-.46.89l2.58,1.31c6.23,3.08,18.13,9,20.64,10.22A10.43,10.43,0,0,0,92.77,31a10.46,10.46,0,0,0,4.75-1.86l.8-.6.19-.29-3.13-7.58Zm-72.58.16a30.17,30.17,0,0,0,3.31.9,27,27,0,0,1,10.11,4C40,27.82,45.08,28.54,49.89,29c7.18.68,16.5-2.57,20.39-4.17l-9.89-5a24.62,24.62,0,0,1-6.79,2.36c-3.71.77-9.81-.62-13.12-1.51-1.25-.34-4.94-2.95-6-3.74a6,6,0,0,0-3.87-1.33c-2.84,0-5.6-.06-10.73-.29-3.66-.16-4.71.35-5,.52a2.68,2.68,0,0,0,.83.81h0A39.31,39.31,0,0,0,21.84,19.51Zm75-.31,5.36,2.61s.53-.36,1-1.83a1.11,1.11,0,0,0,0-.13c.23-3.46-2.42-7-4-8.85a1,1,0,0,0-.76-.35,1,1,0,0,0-.66.25L95,13.39a.37.37,0,0,0-.11.42L96.65,19A.34.34,0,0,0,96.85,19.2Zm-23,25.64a3,3,0,1,0-3.05-3.05A3.06,3.06,0,0,0,73.87,44.84ZM55.23,43.52l-7-1.48a14.68,14.68,0,0,1-4-1.29L44,40.57,37,33.18a3.62,3.62,0,0,0-2.62-1.12h-.25a3.64,3.64,0,0,0-3.28,4.51A3.61,3.61,0,0,0,32.74,39l11.09,5.42a5.33,5.33,0,0,0,2.82.44Z"/></svg>