<svg id="Layer_1" data-name="Layer 1" xmlns="http://www.w3.org/2000/svg" xmlns:xlink="http://www.w3.org/1999/xlink" viewBox="0 0 133 63"><defs><style>.cls-1{fill:url(#linear-gradient);}.cls-2{fill:url(#linear-gradient-2);}.cls-3{fill:#fff;}.cls-4{fill:url(#linear-gradient-3);}.cls-5{fill:#ed1c24;}</style><linearGradient id="linear-gradient" x1="6.01" y1="46.53" x2="38.21" y2="46.53" gradientUnits="userSpaceOnUse"><stop offset="0" stop-color="#606060"/><stop offset="1" stop-color="#1e1e1e"/></linearGradient><linearGradient id="linear-gradient-2" x1="94.79" y1="46.39" x2="126.94" y2="46.39" xlink:href="#linear-gradient"/><linearGradient id="linear-gradient-3" x1="68.47" y1="5.98" x2="68.47" y2="55.84" gradientUnits="userSpaceOnUse"><stop offset="0" stop-color="#fff" stop-opacity="0.5"/><stop offset="0.99" stop-color="#adadad"/></linearGradient></defs><path class="cls-1" d="M37.18,46.79A17.84,17.84,0,0,0,35,39.5l-6.34,3.6a9.39,9.39,0,0,1,.46,3.38,6.63,6.63,0,0,1-7,7c-4.18,0-7.11-2.8-7.11-7a6.81,6.81,0,0,1,7.11-7.1A7.33,7.33,0,0,1,28,42.11l6.58-3.93a15.86,15.86,0,0,0-12.43-6.57c-8,0-15.1,6.67-15.1,14.68s6.89,15.15,14.9,15.15S37.18,54.8,37.18,46.79Z"/><path class="cls-2" d="M125.91,46.8c0-8-6.73-15.57-14.74-15.57a20.29,20.29,0,0,0-6.73,1.66l3.69,7a8.82,8.82,0,0,1,2.73-.33c4.18,0,7.1,2.74,7.1,6.91a6.76,6.76,0,0,1-7.09,7.05c-4.17,0-6.93-3-6.93-7.14a7.25,7.25,0,0,1,3.26-6l-3.81-6.84a15.75,15.75,0,0,0-7.56,12.89c0,8,7,15.15,15,15.15S125.91,54.81,125.91,46.8Z"/><path d="M127.39,46.48a16.5,16.5,0,0,0-23.15-15.13l-2-4a20.82,20.82,0,0,1,8.64-1.88l.2,0c1.08.35,2.19.71,3.31,1.05,2.58.68,4.51.35,5.43-.94s.59-3.38-1.17-6A70.18,70.18,0,0,0,99.32,2.16C96.06.35,94.14-.44,92.73.25a3.21,3.21,0,0,0-1.51,2.51c-.07.41-.38.69-.89,1.09-.67.54-2.06,1.67-.69,3.6.9,1.25,3.07,1.65,5.83,2.15,3.18.58,7.15,1.29,8.17,3.51a1.39,1.39,0,0,1,0,1.24c-.69,1.5-3.51,2.77-6.16,3.7l-1.38-3.28a4.74,4.74,0,0,0-4.47-3.65L89.22,11a1,1,0,0,0-1,1,1,1,0,0,0,.95,1l2.45.11a2.88,2.88,0,0,1,1.08.24,3,3,0,0,1,1.56,2l1.39,3.32c-.75.23-1.43.42-2,.57l-1.41.43c-.25.08-.7.23-1.19-.94a7,7,0,0,0-3.47-3.68c-4.22-2-12.43-5-19.93-3.21-6.34,1.39-9.12,5.14-10.21,7.25a2.23,2.23,0,0,1-1.79,1.16,26.27,26.27,0,0,1-9.06-.95A30.91,30.91,0,0,0,40,18.11a.77.77,0,0,1-.59-.31.74.74,0,0,1-.13-.64c.66-2.76.47-4.55-.59-5.46-2.29-1.95-13.8.59-24.41,8a13.75,13.75,0,0,0-1.42,1.16l-.43.37A4.51,4.51,0,0,0,10.55,25a2.8,2.8,0,0,0,1.25,2.17,4.3,4.3,0,0,0,3.35.45,36.5,36.5,0,0,1,7-1.3A20.2,20.2,0,0,1,38.9,35.23l-3.16,1.89a16.75,16.75,0,1,0,1,1.72l3.16-1.9a20.06,20.06,0,0,1,2.4,9.54v.74c0,4.2.05,5.38.25,5.9a4.9,4.9,0,0,0,3.72,3.43,54,54,0,0,0,8.87.52h8.12c10.21,0,26.14,0,26.56-.2a2.51,2.51,0,0,0,1.45-1.39,2.81,2.81,0,0,0,0-2.22,19.84,19.84,0,0,1-1.41-6.79,21,21,0,0,1,10.56-18.19l2,4a16.51,16.51,0,1,0,24.92,14.21ZM110.86,61a14.51,14.51,0,0,1-7.48-26.95l3.18,6.21a7.63,7.63,0,1,0,1.78-.91l-3.19-6.23A14.53,14.53,0,1,1,110.86,61ZM110,46.93a1,1,0,0,0,.88.55,1.07,1.07,0,0,0,.46-.11,1,1,0,0,0,.43-1.35l-2.49-4.87a5.35,5.35,0,0,1,1.6-.24,5.57,5.57,0,1,1-3.38,1.15Zm-22.09-.41a21.64,21.64,0,0,0,1.57,7.54.86.86,0,0,1,0,.65.6.6,0,0,1-.21.25c-2.17.06-24.45.2-33.95.11h-.12c-1.88,0-6.88-.06-8.39-.45a2.9,2.9,0,0,1-2.32-2.12l0-.11c-.14-.67-.12-3.92-.12-5.16v-.75a22.1,22.1,0,0,0-3.15-11.4s0,0,0,0l0,0a22.18,22.18,0,0,0-19-10.72,37,37,0,0,0-7.5,1.36,2.29,2.29,0,0,1-1.78-.21s0-.05-.06-.07a.84.84,0,0,1-.26-.55,2.82,2.82,0,0,1,1.21-2.09l.45-.39a15.9,15.9,0,0,1,1.24-1l.84-.56c10.25-6.87,19.89-8.36,21.13-7.54.24.2.5,1.17-.06,3.48a2.75,2.75,0,0,0,.09,1.53l-.15.06A3,3,0,0,0,36,20.55a3.73,3.73,0,0,0,1.83,3,20.61,20.61,0,0,0,4.21,2.33,19,19,0,0,0,7.27,1.43,23.37,23.37,0,0,0,5-.56c0,1.52.29,4.37,2.09,5.9a4.14,4.14,0,0,0,2.75,1,6.28,6.28,0,0,0,1.61-.22c.43-.11,1.31-.48,4.5-2.35l3.15-1.83c2.26-1.3,5.06-2.92,8-4.7A44.13,44.13,0,0,1,89.31,19.7c.77,1.65,2.08,2.35,3.56,1.86L94,21.23l.22-.07c.78-.22,1.72-.49,2.72-.81,1.11.44,4.8,1.9,9.56,3.57a22.66,22.66,0,0,0-6,2.07.29.29,0,0,0-.1,0c-.05,0-.07.06-.11.08A23,23,0,0,0,87.89,46.52ZM86.73,16.86a5,5,0,0,1,1.45,1.05A45.29,45.29,0,0,0,75.42,22.8c-3,1.77-5.77,3.38-8,4.68l-3.16,1.84a27.17,27.17,0,0,1-4,2.14,2.78,2.78,0,0,1-2.58-.34c-1.26-1.06-1.42-3.65-1.38-4.87l.83-.24c.78-.24,3.15-1,3.41-2.82A3.44,3.44,0,0,0,59,20.28c.06-.09.12-.18.17-.27.93-1.8,3.32-5,8.89-6.23C75,12.11,82.75,15,86.73,16.86ZM57.59,21.68c.47.33,1,.92,1,1.24s-.49.71-2,1.18c-4.35,1.32-10.9,2.54-17.5-2.17-.65-.49-1-1-1-1.33a1.05,1.05,0,0,1,.4-.66h0a1.19,1.19,0,0,0,.22-.23,2.79,2.79,0,0,0,1.29.4,28.13,28.13,0,0,1,6.13,1.12,28.3,28.3,0,0,0,9.76,1A4.18,4.18,0,0,0,57.59,21.68ZM91.27,6.29a1.46,1.46,0,0,1-.22-.39,2.73,2.73,0,0,1,.54-.49,3.74,3.74,0,0,0,1.6-2.34c.09-.56.25-.95.41-1,.74-.36,3.66,1.26,4.76,1.86A68,68,0,0,1,117,20.7c1.37,2.06,1.51,3.28,1.19,3.73s-1.46.66-3.26.19c-6.15-1.91-12-4.07-15.13-5.29,2.52-1,4.88-2.37,5.69-4.15a3.35,3.35,0,0,0,0-2.9c-1.46-3.16-6-4-9.63-4.65C94,7.3,91.69,6.89,91.27,6.29ZM22.14,61A14.53,14.53,0,1,1,34,38.16l-6,3.6a7.55,7.55,0,1,0,1.66,4.72,7.38,7.38,0,0,0-.63-3l6-3.6A14.51,14.51,0,0,1,22.14,61Zm-.52-15.38a1,1,0,0,0,.52,1.86,1,1,0,0,0,.51-.15l4.69-2.82a5.58,5.58,0,1,1-1-1.71Z"/><path class="cls-3" d="M100.29,26.1a23,23,0,0,0-12.4,20.42,21.64,21.64,0,0,0,1.57,7.54.86.86,0,0,1,0,.65.6.6,0,0,1-.21.25c-2.17.06-24.45.2-33.95.11h-.12c-1.88,0-6.88-.06-8.39-.45a2.9,2.9,0,0,1-2.32-2.12l0-.11c-.14-.67-.12-3.92-.12-5.16v-.75a22.1,22.1,0,0,0-3.15-11.4s0,0,0,0l0,0a22.18,22.18,0,0,0-19-10.72,37,37,0,0,0-7.5,1.36,2.29,2.29,0,0,1-1.78-.21s0-.05-.06-.07a.73.73,0,0,0,.3.07,2,2,0,0,0,1.09-.4,13.76,13.76,0,0,0,3.31-3.16c.46-.61-.08-1.73-1.22-1.12,10.25-6.87,19.89-8.36,21.13-7.54.24.2.5,1.17-.06,3.48a2.75,2.75,0,0,0,.09,1.53l-.15.06A3,3,0,0,0,36,20.55a3.73,3.73,0,0,0,1.83,3,20.61,20.61,0,0,0,4.21,2.33l-.48,0-.53,0a1.57,1.57,0,0,0-1.43,2.62c3.23,3.39,6.22,9.05,7.35,16.7,0,0,.2,2.45.2,4.82A2.84,2.84,0,0,0,50,52.87c9.52.18,26.15.14,33.19.11,1.58,0,2.21-.56,2.26-2.22.13-4.87-.32-14.52,6.92-22,1.67-1.74,8-5.72,3.93-7.47l-2.36,0,.22-.07c.78-.22,1.72-.49,2.72-.81,1.11.44,4.8,1.9,9.56,3.57a22.66,22.66,0,0,0-6,2.07.29.29,0,0,0-.1,0C100.35,26,100.33,26.08,100.29,26.1ZM59.21,20c-.05.09-.11.18-.17.27a3.44,3.44,0,0,1,1.5,2.91c-.26,1.86-2.63,2.58-3.41,2.82l-.83.24c0,1.22.12,3.81,1.38,4.87a2.78,2.78,0,0,0,2.58.34,27.17,27.17,0,0,0,4-2.14l3.16-1.84c2.25-1.3,5-2.91,8-4.68a45.29,45.29,0,0,1,12.76-4.89,5,5,0,0,0-1.45-1.05C82.75,15,75,12.11,68.1,13.78,62.53,15,60.14,18.21,59.21,20Zm46.24-7.73a3.35,3.35,0,0,1,0,2.9c-.81,1.78-3.17,3.13-5.69,4.15,3.16,1.22,9,3.38,15.13,5.29,1.8.47,3,.25,3.26-.19s.18-1.67-1.19-3.73A68,68,0,0,0,98.36,3.9c-1.1-.6-4-2.22-4.76-1.86-.16.08-.32.47-.41,1a3.74,3.74,0,0,1-1.6,2.34,2.73,2.73,0,0,0-.54.49,1.46,1.46,0,0,0,.22.39c.42.6,2.71,1,4.55,1.34C99.46,8.29,104,9.12,105.45,12.28Zm-59.39,9a28.13,28.13,0,0,0-6.13-1.12,2.79,2.79,0,0,1-1.29-.4,1.19,1.19,0,0,1-.22.23h0a1.05,1.05,0,0,0-.4.66c0,.36.37.84,1,1.33,6.6,4.71,13.15,3.49,17.5,2.17,1.53-.47,2-1,2-1.18s-.5-.91-1-1.24a4.18,4.18,0,0,1-1.77.56A28.3,28.3,0,0,1,46.06,21.23ZM105.3,46.48a5.57,5.57,0,1,0,5.56-5.57,5.35,5.35,0,0,0-1.6.24L111.75,46a1,1,0,0,1-.43,1.35,1.07,1.07,0,0,1-.46.11,1,1,0,0,1-.88-.55l-2.5-4.87A5.58,5.58,0,0,0,105.3,46.48ZM22.14,40.91a5.57,5.57,0,1,0,5.2,3.6l-4.69,2.82a1,1,0,0,1-.51.15,1,1,0,0,1-.52-1.86l4.69-2.82A5.54,5.54,0,0,0,22.14,40.91Z"/><path class="cls-3" d="M41.06,25.9a1.57,1.57,0,0,0-1.43,2.62c3.23,3.39,6.22,9.05,7.35,16.7,0,0,.2,2.45.2,4.82A2.84,2.84,0,0,0,50,52.87c9.52.18,26.15.14,33.19.11,1.58,0,2.21-.56,2.26-2.22.13-4.87-.32-14.52,6.92-22,1.67-1.74,8-5.72,3.93-7.47l-2.36,0-1.11.33c-1.48.49-2.79-.21-3.56-1.86a44.13,44.13,0,0,0-12.87,4.81c-3,1.78-5.78,3.4-8,4.7L65.25,31c-3.19,1.87-4.07,2.24-4.5,2.35a6.28,6.28,0,0,1-1.61.22,4.14,4.14,0,0,1-2.75-1c-1.8-1.53-2.08-4.38-2.09-5.9a23.37,23.37,0,0,1-5,.56,19,19,0,0,1-7.27-1.43l-.48,0Z"/><path class="cls-4" d="M41.06,25.9a1.57,1.57,0,0,0-1.43,2.62c3.23,3.39,6.22,9.05,7.35,16.7,0,0,.2,2.45.2,4.82A2.84,2.84,0,0,0,50,52.87c9.52.18,26.15.14,33.19.11,1.58,0,2.21-.56,2.26-2.22.13-4.87-.32-14.52,6.92-22,1.67-1.74,8.61-5.82,3.38-8L94,21.23l-1.11.33c-1.48.49-2.79-.21-3.56-1.86a44.13,44.13,0,0,0-12.87,4.81c-3,1.78-5.78,3.4-8,4.7L65.25,31c-3.19,1.87-4.07,2.24-4.5,2.35a6.28,6.28,0,0,1-1.61.22,4.14,4.14,0,0,1-2.75-1c-1.8-1.53-2.08-4.38-2.09-5.9a23.37,23.37,0,0,1-5,.56,19,19,0,0,1-7.27-1.43l-.48,0Z"/><path class="cls-5" d="M14.19,25a13.76,13.76,0,0,0,3.31-3.16c.46-.61-.08-1.73-1.22-1.12l-.84.56a15.9,15.9,0,0,0-1.24,1l-.45.39a2.82,2.82,0,0,0-1.21,2.09.84.84,0,0,0,.26.55.73.73,0,0,0,.3.07A2,2,0,0,0,14.19,25Z"/></svg>