<svg id="Layer_1" data-name="Layer 1" xmlns="http://www.w3.org/2000/svg" xmlns:xlink="http://www.w3.org/1999/xlink" viewBox="0 0 133 72"><defs><style>.cls-1{fill:url(#linear-gradient);}.cls-2{fill:url(#linear-gradient-2);}.cls-3{fill:none;}.cls-4{fill:#ed1c24;}.cls-5{fill:#fff;}.cls-6{fill:url(#linear-gradient-3);}</style><linearGradient id="linear-gradient" x1="10.26" y1="62.45" x2="46.26" y2="62.45" gradientUnits="userSpaceOnUse"><stop offset="0" stop-color="#606060"/><stop offset="1" stop-color="#1e1e1e"/></linearGradient><linearGradient id="linear-gradient-2" x1="96.05" y1="53.88" x2="131.77" y2="53.88" xlink:href="#linear-gradient"/><linearGradient id="linear-gradient-3" x1="84.35" y1="12" x2="84.35" y2="62.45" gradientUnits="userSpaceOnUse"><stop offset="0" stop-color="#fff" stop-opacity="0.5"/><stop offset="0.99" stop-color="#adadad"/></linearGradient></defs><path class="cls-1" d="M45.17,53.91H36a7.77,7.77,0,0,1-15.41,0H11.36C11.87,62.33,18.07,71,28.25,71,36.8,71,44.65,62.33,45.17,53.91Z"/><path class="cls-2" d="M130.74,53.91c0-8.88-7.46-17.14-16.34-17.14a21,21,0,0,0-9.79,3.08l5.83,8a6.9,6.9,0,0,1,3.45-1.07c4.29,0,7.06,2.82,7.06,7.11s-2.77,7-7.06,7-7.09-2.75-7.09-7a7.41,7.41,0,0,1,2.59-5.49l-5.83-8.17c-3.61,3-6.47,9.13-6.47,14.15A16.88,16.88,0,0,0,113.59,71C122.47,71,130.74,62.79,130.74,53.91Z"/><path class="cls-3" d="M84,30.71a.86.86,0,0,0,.28,0l-.72,0Z"/><path class="cls-4" d="M8.25,35.12,5.11,38.67a.69.69,0,0,0,.06,1l1.61,1.43.13.07L10.68,37A9.18,9.18,0,0,1,8.25,35.12Z"/><path d="M132,53.91a18.06,18.06,0,0,0-27.8-15.23l-3.11-4.32a24,24,0,0,1,12.82-3.7c.84,0,1.68.05,2.51.13a1,1,0,0,0,1-.15l4.86-3.83a3.48,3.48,0,0,0,.66-4.81l-6.49-8.88a3.16,3.16,0,0,0-2.53-1.29h-2.65A74.89,74.89,0,0,0,97.92,1a6.19,6.19,0,0,0-3.33-1H92.36A2.2,2.2,0,0,0,90.3,3L94,12.76l-3.67,7L89,18.42a8,8,0,0,0-5.6-2.48c-1.79,0-4.37-.08-6.53,0a11.06,11.06,0,0,0-9.23,5.19c-.16.26-.31.52-.46.78L45,22a.28.28,0,0,1-.27-.17L43,18.19A2.28,2.28,0,0,0,41,16.87H32.82a.33.33,0,0,1-.29-.23c-2.28-6.92-4.44-9.79-8-10.6a2.76,2.76,0,0,0-3.3,3.29l1,5.71H11.32a3.84,3.84,0,0,0-2.47.89c-1.5,1.25-3.74,4-3.83,9.29H2a1,1,0,0,0,0,2H5.07c0,.44.08.89.14,1.36A11.6,11.6,0,0,0,8,34.87a3.07,3.07,0,0,0,.26.25A9.18,9.18,0,0,0,10.68,37L6.91,41.15,3.07,45.42a3.25,3.25,0,0,0-.82,2.16v4.1a3.23,3.23,0,0,0,3.23,3.23h4.74a18.06,18.06,0,0,0,35.93,1.52L49.61,63a2.92,2.92,0,0,0,2.58,1.56h34.2A4,4,0,0,0,89.55,63a4.07,4.07,0,0,0,.83-3.41,26.41,26.41,0,0,1-.64-4.8,24.12,24.12,0,0,1,9.7-19.34l3.12,4.35A18.08,18.08,0,1,0,132,53.91Zm-44.23.91a27.4,27.4,0,0,0,.69,5.2A2.1,2.1,0,0,1,88,61.78a2.07,2.07,0,0,1-1.62.77h0l-34.2,0a.93.93,0,0,1-.83-.5l-.81-1.53-3-5.59h3.84a3.05,3.05,0,0,0,3.06-3c0-8.54-4.88-16-7.35-19.2H84a3.06,3.06,0,0,0,2.72-1.64l9-17.23h18.14a1.18,1.18,0,0,1,.93.47l6.49,8.88a1.5,1.5,0,0,1-.29,2.08l-1.65,1.3-2.86,2.26a24.68,24.68,0,0,0-2.59-.13,26,26,0,0,0-14.74,4.57s-.05,0-.07,0l0,0A26.13,26.13,0,0,0,87.75,54.82Zm-75.55.09h8.35a7.77,7.77,0,0,0,15.41,0h8.35a16.08,16.08,0,0,1-32.11,0Zm-8-3.23v-4.1a1.26,1.26,0,0,1,.32-.83l8.12-9,4.13-4.6a1,1,0,0,1,.27-.22l.07,0,.22-.09.07,0,.13,0,.19,0H44.58a39.35,39.35,0,0,1,5.62,9.07h-22a1,1,0,1,0,0,2H51a24,24,0,0,1,1.51,8.14,1.06,1.06,0,0,1-1.08,1H5.48A1.25,1.25,0,0,1,4.23,51.68Zm6.19-26.46H7c.09-4.48,1.9-6.75,3.12-7.77a1.86,1.86,0,0,1,1.2-.42H22.59l2.34,13.68H17.75a3.61,3.61,0,0,0-.65.07H17a3.25,3.25,0,0,0-.58.19l-.09.05a2.6,2.6,0,0,0-.45.26l-.12.08a3,3,0,0,0-.46.42h0l-3.09,3.44-.17.19a7.22,7.22,0,0,1-2.59-1.88,9.65,9.65,0,0,1-2.29-5.23c0-.38-.09-.75-.12-1.1h3.36a1,1,0,0,0,0-2ZM23.21,8.93a.76.76,0,0,1,.21-.74A.72.72,0,0,1,24.13,8c2.31.53,4.2,2.27,6.52,9.28a2.29,2.29,0,0,0,2.17,1.59H41a.3.3,0,0,1,.27.17l1.7,3.66A2.29,2.29,0,0,0,45,24l21.17-.13a23.82,23.82,0,0,0-1.27,3.53,1.21,1.21,0,0,0,0,.18l-.09.32a24,24,0,0,0-.58,2.81H27L24.26,15h0Zm60.18,9a6,6,0,0,1,4.22,1.87l1.79,1.87L85,30.13a1.08,1.08,0,0,1-.68.54.86.86,0,0,1-.28,0H66.21c.12-.75.27-1.46.44-2.11a23.36,23.36,0,0,1,2.71-6.45A9.12,9.12,0,0,1,77,17.89C79.07,17.84,81.62,17.88,83.39,17.92ZM92.18,2.08a.19.19,0,0,1,.18-.1h2.23a4.17,4.17,0,0,1,2.26.66,74.88,74.88,0,0,1,11.6,9.19H95.8L92.16,2.27A.2.2,0,0,1,92.18,2.08Zm-58,52.83a6,6,0,0,1-11.91,0ZM113.89,70a16.1,16.1,0,0,1-10.17-28.58l4.87,6.8a7.66,7.66,0,1,0,1.61-1.17l-4.86-6.77a15.94,15.94,0,0,1,8.55-2.49,16.11,16.11,0,0,1,0,32.21Zm-.8-15.53a1,1,0,0,0,.8.42,1,1,0,0,0,.58-.19,1,1,0,0,0,.23-1.39l-3.48-4.83a6,6,0,1,1-1.61,1.15Z"/><path class="cls-5" d="M84.82,58c0-5.4,1-17.79,11.41-25.85a28.27,28.27,0,0,1,15.14-5.62,58.11,58.11,0,0,1,8,0l1.65-1.3a1.5,1.5,0,0,0,.29-2.08l-6.49-8.88a1.18,1.18,0,0,0-.93-.47H95.72l-9,17.23A3.06,3.06,0,0,1,84,32.69H47.13c2.47,3.21,7.39,10.66,7.35,19.2a3.05,3.05,0,0,1-3.06,3H47.58l3,5.59h31.8C85.23,60.5,84.82,59.4,84.82,58Z"/><path class="cls-6" d="M84.82,58c0-5.4,1-17.79,11.41-25.85a28.27,28.27,0,0,1,15.14-5.62,58.11,58.11,0,0,1,8,0l1.65-1.3a1.5,1.5,0,0,0,.29-2.08l-6.49-8.88a1.18,1.18,0,0,0-.93-.47H95.72l-9,17.23A3.06,3.06,0,0,1,84,32.69H47.13c2.47,3.21,7.39,10.66,7.35,19.2a3.05,3.05,0,0,1-3.06,3H47.58l3,5.59h31.8C85.23,60.5,84.82,59.4,84.82,58Z"/><path class="cls-5" d="M5.48,52.92a1.25,1.25,0,0,1-1.25-1.24v-4.1a1.26,1.26,0,0,1,.32-.83l8.12-9,4.13-4.6a1,1,0,0,1,.27-.22l.07,0,.22-.09.07,0,.13,0,.19,0H44.58a39.35,39.35,0,0,1,5.62,9.07h-22a1,1,0,1,0,0,2H51a24,24,0,0,1,1.51,8.14,1.06,1.06,0,0,1-1.08,1H5.48Zm93.6-19.64s0,0,.07,0a26,26,0,0,1,14.74-4.57,24.68,24.68,0,0,1,2.59.13l2.86-2.26a58.11,58.11,0,0,0-8,0,28.27,28.27,0,0,0-15.14,5.62C85.78,40.25,84.84,52.64,84.82,58c0,1.36.41,2.46-2.47,2.46H50.55L51.36,62a.93.93,0,0,0,.83.5l34.2,0h0A2.07,2.07,0,0,0,88,61.78,2.1,2.1,0,0,0,88.44,60a27.4,27.4,0,0,1-.69-5.2A26.13,26.13,0,0,1,99,33.33ZM24.26,15,27,30.71H64.19a24,24,0,0,1,.58-2.81l.09-.32a1.21,1.21,0,0,1,0-.18,23.82,23.82,0,0,1,1.27-3.53L45,24a2.29,2.29,0,0,1-2.09-1.32L41.22,19a.3.3,0,0,0-.27-.17H32.82a2.29,2.29,0,0,1-2.17-1.59c-2.32-7-4.21-8.75-6.52-9.28a.72.72,0,0,0-.71.21.76.76,0,0,0-.21.74L24.26,15Zm45.1,7.11a23.36,23.36,0,0,0-2.71,6.45c-.17.65-.32,1.36-.44,2.11H83.59l.72,0a1.08,1.08,0,0,0,.68-.54l4.41-8.47-1.79-1.87a6,6,0,0,0-4.22-1.87c-1.77,0-4.32-.08-6.43,0A9.12,9.12,0,0,0,69.36,22.15ZM10.42,27.21H7.06c0,.35.07.72.12,1.1a9.65,9.65,0,0,0,2.29,5.23,7.22,7.22,0,0,0,2.59,1.88l.17-.19,3.09-3.44h0a3,3,0,0,1,.46-.42l.12-.08a2.6,2.6,0,0,1,.45-.26l.09-.05a3.25,3.25,0,0,1,.58-.19h.07a3.61,3.61,0,0,1,.65-.07h7.18L22.59,17H11.32a1.86,1.86,0,0,0-1.2.42c-1.22,1-3,3.29-3.12,7.77h3.42a1,1,0,0,1,0,2ZM28.25,60a6,6,0,0,0,6-5.05H22.3A6,6,0,0,0,28.25,60Zm85.64,0a6,6,0,1,0-2.67-11.46l3.48,4.83a1,1,0,0,1-.23,1.39,1,1,0,0,1-.58.19,1,1,0,0,1-.8-.42l-3.48-4.84A6,6,0,0,0,113.89,60ZM95.8,11.83h12.65a74.88,74.88,0,0,0-11.6-9.19A4.17,4.17,0,0,0,94.59,2H92.36a.19.19,0,0,0-.18.1.2.2,0,0,0,0,.19Z"/></svg>